<svg width="589" height="453" viewBox="0 0 589 453" fill="none" xmlns="http://www.w3.org/2000/svg">
<g clip-path="url(#clip0_632_2674)">
<g clip-path="url(#clip1_632_2674)">
<path d="M588.467 452.666H0V-0.000640869H588.467V452.666Z" fill="white"/>
<path d="M543.208 260.401C543.208 336.477 481.536 398.148 405.461 398.148C329.386 398.148 267.714 336.477 267.714 260.401C267.714 184.326 329.386 122.655 405.461 122.655C481.536 122.655 543.208 184.326 543.208 260.401Z" fill="#E2F497"/>
<path d="M405.46 401.449C327.687 401.449 264.412 338.175 264.412 260.401C264.412 229.038 274.487 199.348 293.547 174.541C293.7 174.345 293.983 174.307 294.181 174.459C294.38 174.611 294.417 174.894 294.265 175.093C275.328 199.74 265.317 229.239 265.317 260.401C265.317 337.677 328.186 400.544 405.46 400.544C482.736 400.544 545.603 337.677 545.603 260.401C545.603 183.126 482.736 120.258 405.46 120.258C394.388 120.258 383.364 121.554 372.696 124.109C372.449 124.168 372.208 124.016 372.15 123.774C372.092 123.532 372.243 123.287 372.485 123.228C383.223 120.657 394.317 119.353 405.46 119.353C483.235 119.353 546.509 182.627 546.509 260.401C546.509 338.175 483.235 401.449 405.46 401.449Z" fill="#181D20"/>
<mask id="mask0_632_2674" style="mask-type:luminance" maskUnits="userSpaceOnUse" x="223" y="115" width="341" height="284">
<path d="M563.053 115.556V366.035H493.874C469.951 386.078 439.115 398.146 405.464 398.146C371.812 398.146 340.977 386.078 317.053 366.035H223.899V115.556H563.053Z" fill="white"/>
</mask>
<g mask="url(#mask0_632_2674)">
<path d="M347.696 270.645C353.767 261.193 357.561 252.295 359.632 244.002C371.014 198.484 330.579 171.224 330.579 171.224C330.579 171.224 317.338 189.133 316.761 212.813C316.33 230.554 323.008 251.533 347.696 270.645Z" fill="white"/>
<path d="M332.672 180.641L347.904 269.105C347.972 269.501 347.346 269.535 347.279 269.141L332.048 180.677C331.98 180.281 332.604 180.247 332.672 180.641Z" fill="#B66DFF"/>
<path d="M338.582 218.054L347.839 205.108C348.848 203.688 349.858 202.27 350.867 200.85C351.101 200.522 351.572 200.934 351.34 201.26L340.629 216.322C339.62 217.742 340.064 217.045 339.055 218.463C338.821 218.792 338.35 218.379 338.582 218.054Z" fill="#B66DFF"/>
<path d="M343.049 244.001L352.307 231.055C353.317 229.636 354.326 228.217 355.336 226.797C355.569 226.469 356.04 226.882 355.808 227.208L345.096 242.27C344.087 243.688 344.532 242.992 343.523 244.411C343.289 244.739 342.818 244.327 343.049 244.001Z" fill="#B66DFF"/>
<path d="M325.522 232.422L338.576 241.526C340.002 242.526 341.428 243.526 342.854 244.526C343.184 244.758 343.489 244.211 343.163 243.982L328.03 233.37C326.604 232.369 327.257 232.877 325.831 231.878C325.501 231.646 325.195 232.193 325.522 232.422Z" fill="#B66DFF"/>
<path d="M320.946 205.836L334 214.94C335.425 215.94 336.851 216.941 338.277 217.94C338.608 218.172 338.913 217.625 338.586 217.396L323.453 206.784C322.027 205.783 322.68 206.291 321.254 205.292C320.924 205.06 320.619 205.607 320.946 205.836Z" fill="#B66DFF"/>
<path d="M348.08 270.823C347.049 259.637 344.565 250.288 341.095 242.476C322.058 199.593 273.41 202.986 273.41 202.986C273.41 202.986 273.993 225.25 288.109 244.271C298.685 258.521 316.859 270.949 348.08 270.823Z" fill="#B66DFF"/>
<path d="M280.855 209.118L347.296 269.48C347.593 269.75 347.122 270.162 346.826 269.893L280.385 209.532C280.087 209.262 280.559 208.85 280.855 209.118Z" fill="white"/>
<path d="M308.536 234.973L307.867 219.073C307.789 217.333 307.712 215.593 307.635 213.853C307.617 213.45 308.241 213.486 308.259 213.885L309.084 232.349C309.162 234.089 309.083 233.266 309.161 235.006C309.179 235.409 308.554 235.373 308.536 234.973Z" fill="white"/>
<path d="M328.023 252.679L327.355 236.778C327.277 235.038 327.199 233.298 327.121 231.558C327.104 231.155 327.729 231.191 327.747 231.59L328.572 250.054C328.649 251.794 328.571 250.971 328.649 252.711C328.667 253.114 328.041 253.078 328.023 252.679Z" fill="white"/>
<path d="M307.082 254.337L322.974 253.481C324.713 253.392 326.453 253.304 328.192 253.214C328.595 253.193 328.5 252.575 328.1 252.595L309.642 253.541C307.902 253.629 308.73 253.629 306.99 253.718C306.587 253.739 306.683 254.357 307.082 254.337Z" fill="white"/>
<path d="M287.114 236.195L303.005 235.338C304.745 235.25 306.484 235.161 308.223 235.071C308.626 235.051 308.53 234.432 308.132 234.452L289.673 235.398C287.934 235.487 288.761 235.487 287.021 235.576C286.619 235.596 286.715 236.215 287.114 236.195Z" fill="white"/>
<path d="M456.233 232.637C450.162 223.185 446.368 214.287 444.296 205.995C432.914 160.476 473.35 133.217 473.35 133.217C473.35 133.217 486.591 151.124 487.168 174.805C487.599 192.545 480.92 213.525 456.233 232.637Z" fill="white"/>
<path d="M471.256 142.632L456.025 231.097C455.957 231.493 456.581 231.528 456.649 231.134L471.881 142.669C471.949 142.273 471.324 142.239 471.256 142.632Z" fill="#B66DFF"/>
<path d="M465.345 180.046L456.088 167.1C455.079 165.681 454.069 164.261 453.06 162.842C452.826 162.514 452.356 162.927 452.587 163.252L463.298 178.315C464.308 179.733 463.863 179.036 464.873 180.456C465.106 180.784 465.577 180.371 465.345 180.046Z" fill="#B66DFF"/>
<path d="M460.878 205.993L451.621 193.047C450.611 191.628 449.602 190.208 448.592 188.79C448.359 188.461 447.888 188.874 448.12 189.2L458.832 204.262C459.841 205.68 459.396 204.983 460.405 206.403C460.639 206.732 461.109 206.319 460.878 205.993Z" fill="#B66DFF"/>
<path d="M478.406 194.414L465.352 203.518C463.926 204.518 462.5 205.519 461.074 206.518C460.744 206.75 460.439 206.203 460.765 205.974L475.897 195.361C477.323 194.361 476.671 194.869 478.097 193.87C478.428 193.638 478.733 194.185 478.406 194.414Z" fill="#B66DFF"/>
<path d="M482.982 167.828L469.928 176.932C468.503 177.932 467.077 178.932 465.651 179.932C465.32 180.164 465.015 179.617 465.342 179.388L480.475 168.775C481.901 167.775 481.248 168.283 482.674 167.283C483.004 167.052 483.309 167.599 482.982 167.828Z" fill="#B66DFF"/>
<path d="M455.849 232.813C456.879 221.628 459.363 212.279 462.833 204.467C481.87 161.584 530.519 164.977 530.519 164.977C530.519 164.977 529.936 187.241 515.82 206.262C505.243 220.512 487.069 232.94 455.849 232.813Z" fill="#B66DFF"/>
<path d="M523.073 171.11L456.631 231.471C456.334 231.742 456.806 232.154 457.101 231.885L523.542 171.524C523.839 171.253 523.369 170.841 523.073 171.11Z" fill="white"/>
<path d="M495.391 196.966L496.06 181.064C496.138 179.325 496.215 177.585 496.293 175.845C496.311 175.442 495.686 175.478 495.668 175.877L494.843 194.341C494.766 196.081 494.844 195.258 494.766 196.998C494.748 197.401 495.374 197.365 495.391 196.966Z" fill="white"/>
<path d="M475.904 214.671L476.572 198.77C476.65 197.03 476.728 195.29 476.805 193.55C476.823 193.147 476.199 193.183 476.18 193.582L475.356 212.046C475.278 213.786 475.357 212.963 475.279 214.703C475.261 215.106 475.886 215.07 475.904 214.671Z" fill="white"/>
<path d="M496.844 216.328L480.952 215.471C479.213 215.382 477.474 215.293 475.735 215.204C475.332 215.183 475.427 214.565 475.826 214.585L494.284 215.531C496.024 215.62 495.197 215.619 496.937 215.708C497.34 215.729 497.244 216.348 496.844 216.328Z" fill="white"/>
<path d="M516.813 198.187L500.92 197.331C499.181 197.242 497.442 197.152 495.703 197.064C495.3 197.043 495.395 196.424 495.794 196.444L514.253 197.39C515.992 197.479 515.165 197.478 516.905 197.568C517.308 197.589 517.212 198.207 516.813 198.187Z" fill="white"/>
<path d="M387.984 208.851L433.66 208.841H453.249C472.672 208.841 489.547 222.2 494.004 241.105L510.787 312.282C515.827 333.653 499.615 354.132 477.659 354.132L481.361 417.936H334.317L346.715 335.118H345.983C328.173 335.118 315.585 317.687 321.185 300.781L342.129 237.556C347.808 220.415 363.834 208.845 381.89 208.85L387.984 208.851Z" fill="#D2AEF7"/>
</g>
<mask id="mask1_632_2674" style="mask-type:luminance" maskUnits="userSpaceOnUse" x="223" y="115" width="341" height="284">
<path d="M563.053 115.556V366.035H493.874C469.951 386.078 439.115 398.146 405.464 398.146C371.812 398.146 340.977 386.078 317.053 366.035H223.899V115.556H563.053Z" fill="white"/>
</mask>
<g mask="url(#mask1_632_2674)">
<mask id="mask2_632_2674" style="mask-type:luminance" maskUnits="userSpaceOnUse" x="319" y="208" width="193" height="210">
<path d="M387.985 208.851L433.662 208.841H453.251C472.674 208.841 489.548 222.2 494.006 241.105L510.789 312.282C515.828 333.653 499.616 354.132 477.66 354.132L481.362 417.936H334.319L346.716 335.118H345.985C328.174 335.118 315.586 317.687 321.187 300.781L342.131 237.556C347.809 220.415 363.835 208.845 381.891 208.85L387.985 208.851Z" fill="white"/>
</mask>
<g mask="url(#mask2_632_2674)">
<path d="M319.983 384.679C320.023 385.561 319.334 386.31 318.453 386.351L311.532 386.645C310.65 386.685 309.901 385.996 309.86 385.115V385.043C309.86 384.192 310.539 383.473 311.401 383.443L318.311 383.149C319.193 383.108 319.943 383.798 319.983 384.679Z" fill="#E2F497"/>
<path d="M319.983 351.494C320.023 352.375 319.334 353.125 318.453 353.166L311.532 353.46C310.65 353.49 309.901 352.801 309.86 351.92V351.849C309.86 350.998 310.539 350.289 311.401 350.248L318.311 349.954C319.193 349.913 319.943 350.613 319.983 351.494Z" fill="#E2F497"/>
<path d="M319.983 318.298C320.023 319.179 319.334 319.929 318.453 319.97L311.532 320.264C310.65 320.305 309.901 319.615 309.86 318.734V318.662C309.86 317.811 310.539 317.092 311.401 317.062L318.311 316.768C319.193 316.728 319.943 317.417 319.983 318.298Z" fill="#E2F497"/>
<path d="M319.983 251.918C320.023 252.798 319.334 253.549 318.453 253.589L311.532 253.883C310.65 253.924 309.901 253.235 309.86 252.353V252.282C309.86 251.431 310.539 250.712 311.401 250.681L318.311 250.377C319.193 250.347 319.943 251.036 319.983 251.918Z" fill="#E2F497"/>
<path d="M319.983 285.101C320.023 285.993 319.334 286.743 318.453 286.773L311.532 287.077C310.65 287.107 309.901 286.418 309.86 285.537V285.466C309.86 284.615 310.539 283.906 311.401 283.865L318.311 283.571C319.193 283.531 319.943 284.22 319.983 285.101Z" fill="#E2F497"/>
<path d="M319.983 218.721C320.023 219.602 319.334 220.362 318.453 220.392L311.532 220.696C310.65 220.727 309.901 220.038 309.86 219.156V219.086C309.86 218.234 310.539 217.525 311.401 217.484L318.311 217.19C319.193 217.15 319.943 217.839 319.983 218.721Z" fill="#E2F497"/>
<path d="M368.155 298.873C368.368 299.158 368.469 299.492 368.469 299.836C368.469 300.323 368.256 300.809 367.841 301.123L362.308 305.288C361.599 305.815 360.586 305.672 360.059 304.964C359.522 304.265 359.674 303.251 360.373 302.724L365.906 298.559C366.615 298.022 367.618 298.165 368.155 298.873Z" fill="#E2F497"/>
<path d="M368.155 332.058C368.368 332.352 368.469 332.686 368.469 333.02C368.469 333.517 368.256 333.994 367.841 334.308L362.308 338.472C361.599 339.009 360.586 338.857 360.059 338.158C359.522 337.448 359.674 336.435 360.373 335.908L365.906 331.744C366.615 331.217 367.618 331.359 368.155 332.058Z" fill="#E2F497"/>
<path d="M368.155 398.44C368.368 398.733 368.469 399.068 368.469 399.402C368.469 399.899 368.256 400.375 367.841 400.69L362.308 404.854C361.599 405.391 360.586 405.249 360.059 404.54C359.522 403.83 359.674 402.827 360.373 402.29L365.906 398.126C366.615 397.599 367.618 397.741 368.155 398.44Z" fill="#E2F497"/>
<path d="M357.636 287.118C358.164 287.827 358.022 288.84 357.312 289.367C356.613 289.905 355.6 289.763 355.073 289.054L350.909 283.52C350.371 282.821 350.513 281.808 351.223 281.271C351.506 281.059 351.84 280.957 352.175 280.957C352.672 280.957 353.158 281.17 353.472 281.596L357.636 287.118Z" fill="#E2F497"/>
<path d="M379.009 384.679C379.039 385.561 378.35 386.31 377.468 386.351L370.557 386.645C369.676 386.685 368.916 385.996 368.885 385.115V385.043C368.885 384.192 369.554 383.473 370.415 383.443L377.337 383.149C378.218 383.108 378.968 383.798 379.009 384.679Z" fill="#E2F497"/>
<path d="M328.119 403.294C328.657 403.993 328.515 405.007 327.805 405.544C327.106 406.07 326.093 405.928 325.556 405.219L321.392 399.697C320.865 398.987 321.006 397.974 321.716 397.447C321.999 397.224 322.344 397.123 322.678 397.123C323.164 397.123 323.641 397.346 323.955 397.761L328.119 403.294Z" fill="#E2F497"/>
<path d="M328.119 270.53C328.657 271.23 328.515 272.243 327.805 272.77C327.106 273.307 326.093 273.165 325.556 272.456L321.392 266.923C320.865 266.224 321.006 265.211 321.716 264.684C321.999 264.461 322.344 264.359 322.678 264.359C323.164 264.359 323.641 264.582 323.955 264.998L328.119 270.53Z" fill="#E2F497"/>
<path d="M368.155 265.677C368.368 265.972 368.469 266.306 368.469 266.64C368.469 267.137 368.256 267.613 367.841 267.927L362.308 272.092C361.599 272.619 360.586 272.476 360.059 271.778C359.522 271.069 359.674 270.055 360.373 269.528L365.906 265.363C366.615 264.836 367.618 264.979 368.155 265.677Z" fill="#E2F497"/>
<path d="M379.009 351.494C379.039 352.375 378.35 353.125 377.468 353.166L370.557 353.46C369.676 353.49 368.916 352.801 368.885 351.92V351.849C368.885 350.998 369.554 350.289 370.415 350.248L377.337 349.954C378.218 349.913 378.968 350.613 379.009 351.494Z" fill="#E2F497"/>
<path d="M338.649 282.275C338.862 282.558 338.962 282.903 338.962 283.237C338.962 283.724 338.749 284.21 338.324 284.524L332.791 288.689C332.092 289.216 331.079 289.074 330.552 288.375C330.015 287.665 330.157 286.652 330.867 286.125L336.399 281.961C337.098 281.423 338.111 281.565 338.649 282.275Z" fill="#E2F497"/>
<path d="M379.009 318.298C379.039 319.179 378.35 319.929 377.468 319.97L370.557 320.264C369.676 320.305 368.916 319.615 368.885 318.734V318.662C368.885 317.811 369.554 317.092 370.415 317.062L377.337 316.768C378.218 316.728 378.968 317.417 379.009 318.298Z" fill="#E2F497"/>
<path d="M379.009 285.101C379.039 285.993 378.35 286.743 377.468 286.773L370.557 287.077C369.676 287.107 368.916 286.418 368.885 285.537V285.466C368.885 284.615 369.554 283.906 370.415 283.865L377.337 283.571C378.218 283.531 378.968 284.22 379.009 285.101Z" fill="#E2F497"/>
<path d="M379.009 251.918C379.039 252.798 378.35 253.549 377.468 253.589L370.557 253.883C369.676 253.924 368.916 253.235 368.885 252.353V252.282C368.885 251.431 369.554 250.712 370.415 250.681L377.337 250.377C378.218 250.347 378.968 251.036 379.009 251.918Z" fill="#E2F497"/>
<path d="M379.009 218.721C379.039 219.602 378.35 220.362 377.468 220.392L370.557 220.696C369.676 220.727 368.916 220.038 368.885 219.156V219.086C368.885 218.234 369.554 217.525 370.415 217.484L377.337 217.19C378.218 217.15 378.968 217.839 379.009 218.721Z" fill="#E2F497"/>
<path d="M387.145 336.913C387.672 337.613 387.53 338.626 386.83 339.163C386.122 339.69 385.109 339.547 384.582 338.839L380.417 333.306C379.879 332.606 380.031 331.593 380.731 331.066C381.025 330.844 381.359 330.742 381.704 330.742C382.19 330.742 382.666 330.965 382.98 331.38L387.145 336.913Z" fill="#E2F497"/>
<path d="M357.636 386.696C358.164 387.405 358.022 388.408 357.312 388.945C356.613 389.472 355.6 389.331 355.073 388.631L350.909 383.098C350.371 382.389 350.513 381.376 351.223 380.849C351.506 380.636 351.84 380.534 352.185 380.534C352.672 380.534 353.158 380.748 353.472 381.163L357.636 386.696Z" fill="#E2F497"/>
<path d="M368.155 232.49C368.368 232.775 368.469 233.109 368.469 233.454C368.469 233.94 368.256 234.426 367.841 234.74L362.308 238.895C361.599 239.432 360.586 239.29 360.059 238.581C359.522 237.882 359.674 236.869 360.373 236.331L365.906 232.166C366.615 231.639 367.618 231.782 368.155 232.49Z" fill="#E2F497"/>
<path d="M338.649 249.09C338.862 249.374 338.962 249.709 338.962 250.043C338.962 250.529 338.749 251.015 338.324 251.329L332.791 255.495C332.092 256.032 331.079 255.889 330.552 255.18C330.015 254.471 330.157 253.468 330.867 252.931L336.399 248.766C337.098 248.239 338.111 248.381 338.649 249.09Z" fill="#E2F497"/>
<path d="M338.649 348.657C338.862 348.94 338.962 349.284 338.962 349.619C338.962 350.105 338.749 350.591 338.324 350.905L332.791 355.07C332.092 355.597 331.079 355.456 330.552 354.756C330.015 354.047 330.157 353.034 330.867 352.507L336.399 348.342C337.098 347.805 338.111 347.957 338.649 348.657Z" fill="#E2F497"/>
<path d="M349.491 268.513C349.53 269.395 348.841 270.145 347.961 270.185L341.039 270.479C340.158 270.52 339.408 269.821 339.367 268.939V268.878C339.367 268.027 340.046 267.307 340.907 267.267L347.818 266.973C348.7 266.943 349.46 267.632 349.491 268.513Z" fill="#E2F497"/>
<path d="M328.119 370.098C328.657 370.808 328.515 371.821 327.805 372.348C327.106 372.874 326.093 372.732 325.556 372.034L321.392 366.501C320.865 365.791 321.006 364.788 321.716 364.251C321.999 364.039 322.333 363.937 322.678 363.937C323.164 363.937 323.641 364.15 323.955 364.566L328.119 370.098Z" fill="#E2F497"/>
<path d="M349.491 301.701C349.53 302.583 348.841 303.342 347.961 303.373L341.039 303.666C340.158 303.707 339.408 303.018 339.367 302.136V302.076C339.367 301.225 340.046 300.505 340.907 300.464L347.818 300.171C348.7 300.13 349.46 300.819 349.491 301.701Z" fill="#E2F497"/>
<path d="M338.649 381.852C338.862 382.136 338.962 382.47 338.962 382.805C338.962 383.291 338.749 383.777 338.324 384.092L332.791 388.256C332.092 388.793 331.079 388.652 330.552 387.942C330.015 387.243 330.157 386.23 330.867 385.693L336.399 381.528C337.098 381.001 338.111 381.143 338.649 381.852Z" fill="#E2F497"/>
<path d="M387.145 403.294C387.672 403.993 387.53 405.007 386.83 405.544C386.122 406.07 385.109 405.928 384.582 405.219L380.417 399.697C379.879 398.987 380.031 397.974 380.731 397.447C381.025 397.224 381.359 397.123 381.704 397.123C382.19 397.123 382.666 397.346 382.98 397.761L387.145 403.294Z" fill="#E2F497"/>
<path d="M338.649 315.471C338.862 315.755 338.962 316.089 338.962 316.424C338.962 316.91 338.749 317.396 338.324 317.71L332.791 321.875C332.092 322.413 331.079 322.27 330.552 321.561C330.015 320.852 330.157 319.849 330.867 319.312L336.399 315.147C337.098 314.62 338.111 314.762 338.649 315.471Z" fill="#E2F497"/>
<path d="M328.119 336.913C328.657 337.613 328.515 338.626 327.805 339.163C327.106 339.69 326.093 339.547 325.556 338.839L321.392 333.306C320.865 332.606 321.006 331.593 321.716 331.066C321.999 330.844 322.344 330.742 322.678 330.742C323.164 330.742 323.641 330.965 323.955 331.38L328.119 336.913Z" fill="#E2F497"/>
<path d="M338.649 215.893C338.862 216.176 338.962 216.521 338.962 216.855C338.962 217.341 338.749 217.829 338.324 218.143L332.791 222.307C332.092 222.834 331.079 222.692 330.552 221.983C330.015 221.283 330.157 220.27 330.867 219.743L336.399 215.579C337.098 215.042 338.111 215.183 338.649 215.893Z" fill="#E2F497"/>
<path d="M357.636 253.933C358.164 254.641 358.022 255.645 357.312 256.182C356.613 256.709 355.6 256.567 355.073 255.857L350.909 250.336C350.371 249.626 350.513 248.613 351.223 248.086C351.506 247.862 351.851 247.762 352.185 247.762C352.672 247.762 353.158 247.984 353.472 248.4L357.636 253.933Z" fill="#E2F497"/>
<path d="M328.119 303.717C328.657 304.427 328.515 305.44 327.805 305.967C327.106 306.494 326.093 306.351 325.556 305.653L321.392 300.12C320.865 299.41 321.006 298.407 321.716 297.87C321.999 297.658 322.333 297.556 322.678 297.556C323.164 297.556 323.641 297.769 323.955 298.184L328.119 303.717Z" fill="#E2F497"/>
<path d="M328.119 237.334C328.657 238.044 328.515 239.057 327.805 239.584C327.106 240.111 326.093 239.969 325.556 239.27L321.392 233.737C320.865 233.027 321.006 232.014 321.716 231.487C321.999 231.275 322.333 231.173 322.678 231.173C323.164 231.173 323.641 231.386 323.955 231.802L328.119 237.334Z" fill="#E2F497"/>
<path d="M387.145 270.53C387.672 271.23 387.53 272.243 386.83 272.77C386.122 273.307 385.109 273.165 384.582 272.456L380.417 266.923C379.879 266.224 380.031 265.211 380.731 264.684C381.025 264.461 381.359 264.359 381.704 264.359C382.19 264.359 382.666 264.582 382.98 264.998L387.145 270.53Z" fill="#E2F497"/>
<path d="M349.491 334.896C349.53 335.778 348.841 336.528 347.961 336.568L341.039 336.862C340.158 336.902 339.408 336.203 339.367 335.322V335.261C339.367 334.41 340.046 333.69 340.907 333.649L347.818 333.356C348.7 333.325 349.46 334.014 349.491 334.896Z" fill="#E2F497"/>
<path d="M357.636 320.315C358.164 321.024 358.022 322.027 357.312 322.565C356.613 323.091 355.6 322.95 355.073 322.251L350.909 316.717C350.371 316.008 350.513 314.995 351.223 314.468C351.506 314.245 351.84 314.143 352.175 314.143C352.672 314.143 353.158 314.367 353.472 314.783L357.636 320.315Z" fill="#E2F497"/>
<path d="M357.636 220.738C358.164 221.447 358.022 222.461 357.312 222.988C356.613 223.525 355.6 223.373 355.073 222.674L350.909 217.14C350.371 216.431 350.513 215.428 351.223 214.891C351.506 214.679 351.84 214.577 352.175 214.577C352.672 214.577 353.158 214.79 353.472 215.216L357.636 220.738Z" fill="#E2F497"/>
<path d="M357.636 353.511C358.164 354.21 358.022 355.223 357.312 355.75C356.613 356.288 355.6 356.145 355.073 355.436L350.909 349.903C350.371 349.204 350.513 348.191 351.223 347.653C351.506 347.441 351.84 347.339 352.175 347.339C352.672 347.339 353.158 347.553 353.472 347.978L357.636 353.511Z" fill="#E2F497"/>
<path d="M349.491 235.318C349.53 236.2 348.841 236.949 347.961 236.99L341.039 237.283C340.158 237.324 339.408 236.635 339.367 235.753V235.693C339.367 234.842 340.046 234.122 340.907 234.082L347.818 233.788C348.7 233.747 349.46 234.436 349.491 235.318Z" fill="#E2F497"/>
<path d="M368.155 365.254C368.368 365.549 368.469 365.883 368.469 366.217C368.469 366.704 368.256 367.19 367.841 367.504L362.308 371.669C361.599 372.195 360.586 372.053 360.059 371.345C359.522 370.645 359.674 369.632 360.373 369.105L365.906 364.94C366.615 364.403 367.618 364.545 368.155 365.254Z" fill="#E2F497"/>
<path d="M349.491 368.082C349.53 368.963 348.841 369.723 347.961 369.753L341.039 370.047C340.158 370.088 339.408 369.399 339.367 368.517V368.457C339.367 367.605 340.046 366.886 340.907 366.845L347.818 366.552C348.7 366.511 349.46 367.2 349.491 368.082Z" fill="#E2F497"/>
<path d="M397.663 282.275C397.876 282.568 397.978 282.903 397.978 283.237C397.978 283.724 397.765 284.21 397.349 284.524L391.817 288.689C391.108 289.216 390.105 289.074 389.567 288.375C389.04 287.665 389.182 286.652 389.881 286.125L395.415 281.961C396.123 281.423 397.136 281.565 397.663 282.275Z" fill="#E2F497"/>
<path d="M427.17 332.058C427.394 332.352 427.494 332.686 427.494 333.03C427.494 333.517 427.271 333.994 426.856 334.308L421.323 338.472C420.624 339.009 419.611 338.857 419.074 338.158C418.547 337.448 418.689 336.435 419.399 335.908L424.92 331.744C425.63 331.217 426.643 331.359 427.17 332.058Z" fill="#E2F497"/>
<path d="M438.023 351.494C438.063 352.375 437.374 353.125 436.492 353.166L429.572 353.46C428.69 353.49 427.941 352.801 427.9 351.92V351.849C427.9 350.998 428.569 350.289 429.44 350.248L436.351 349.954C437.232 349.913 437.983 350.613 438.023 351.494Z" fill="#E2F497"/>
<path d="M397.663 348.657C397.876 348.95 397.978 349.284 397.978 349.619C397.978 350.115 397.765 350.591 397.349 350.905L391.817 355.07C391.108 355.597 390.105 355.456 389.567 354.756C389.04 354.047 389.182 353.034 389.881 352.507L395.415 348.342C396.123 347.805 397.136 347.957 397.663 348.657Z" fill="#E2F497"/>
<path d="M397.663 381.852C397.876 382.136 397.978 382.47 397.978 382.815C397.978 383.301 397.765 383.777 397.349 384.092L391.817 388.256C391.108 388.793 390.105 388.652 389.567 387.942C389.04 387.243 389.182 386.23 389.881 385.693L395.415 381.528C396.123 381.001 397.136 381.143 397.663 381.852Z" fill="#E2F497"/>
<path d="M408.516 235.318C408.556 236.2 407.857 236.949 406.975 236.99L400.065 237.283C399.183 237.324 398.433 236.635 398.393 235.753V235.683C398.393 234.832 399.062 234.122 399.923 234.082L406.844 233.788C407.726 233.747 408.475 234.436 408.516 235.318Z" fill="#E2F497"/>
<path d="M427.17 232.49C427.394 232.775 427.494 233.119 427.494 233.454C427.494 233.94 427.271 234.426 426.856 234.74L421.323 238.895C420.624 239.432 419.611 239.29 419.074 238.581C418.547 237.882 418.689 236.869 419.399 236.331L424.92 232.166C425.63 231.639 426.643 231.782 427.17 232.49Z" fill="#E2F497"/>
<path d="M427.17 265.677C427.394 265.972 427.494 266.306 427.494 266.651C427.494 267.137 427.271 267.613 426.856 267.927L421.323 272.092C420.624 272.619 419.611 272.476 419.074 271.778C418.547 271.069 418.689 270.055 419.399 269.528L424.92 265.363C425.63 264.836 426.643 264.979 427.17 265.677Z" fill="#E2F497"/>
<path d="M438.023 318.298C438.063 319.179 437.374 319.929 436.492 319.97L429.572 320.264C428.69 320.305 427.941 319.615 427.9 318.734V318.662C427.9 317.811 428.569 317.092 429.44 317.062L436.351 316.768C437.232 316.728 437.983 317.417 438.023 318.298Z" fill="#E2F497"/>
<path d="M438.023 251.918C438.063 252.798 437.374 253.549 436.492 253.589L429.572 253.883C428.69 253.924 427.941 253.235 427.9 252.353V252.282C427.9 251.431 428.569 250.712 429.44 250.681L436.351 250.377C437.232 250.347 437.983 251.036 438.023 251.918Z" fill="#E2F497"/>
<path d="M416.652 353.511C417.179 354.21 417.038 355.223 416.338 355.75C415.629 356.288 414.616 356.145 414.089 355.436L409.924 349.903C409.397 349.204 409.539 348.191 410.238 347.653C410.522 347.441 410.866 347.339 411.201 347.339C411.688 347.339 412.174 347.553 412.488 347.978L416.652 353.511Z" fill="#E2F497"/>
<path d="M438.023 285.101C438.063 285.993 437.374 286.743 436.492 286.773L429.572 287.077C428.69 287.107 427.941 286.418 427.9 285.537V285.466C427.9 284.615 428.569 283.906 429.44 283.865L436.351 283.571C437.232 283.531 437.983 284.22 438.023 285.101Z" fill="#E2F497"/>
<path d="M438.023 218.721C438.063 219.602 437.374 220.362 436.492 220.392L429.572 220.696C428.69 220.727 427.941 220.038 427.9 219.156V219.086C427.9 218.234 428.569 217.525 429.44 217.484L436.351 217.19C437.232 217.15 437.983 217.839 438.023 218.721Z" fill="#E2F497"/>
<path d="M446.16 336.913C446.697 337.613 446.556 338.626 445.846 339.163C445.137 339.69 444.134 339.547 443.596 338.839L439.431 333.306C438.905 332.606 439.047 331.593 439.756 331.066C440.04 330.844 440.384 330.742 440.719 330.742C441.205 330.742 441.681 330.965 441.995 331.38L446.16 336.913Z" fill="#E2F497"/>
<path d="M446.16 270.53C446.697 271.23 446.556 272.243 445.846 272.77C445.137 273.307 444.134 273.165 443.596 272.456L439.431 266.923C438.905 266.224 439.047 265.211 439.756 264.684C440.04 264.461 440.384 264.359 440.719 264.359C441.205 264.359 441.681 264.582 441.995 264.998L446.16 270.53Z" fill="#E2F497"/>
<path d="M387.145 370.098C387.672 370.808 387.53 371.821 386.83 372.348C386.122 372.874 385.109 372.732 384.582 372.034L380.417 366.501C379.879 365.791 380.031 364.788 380.731 364.251C381.025 364.039 381.359 363.937 381.694 363.937C382.19 363.937 382.666 364.15 382.98 364.566L387.145 370.098Z" fill="#E2F497"/>
<path d="M408.516 334.896C408.556 335.778 407.857 336.528 406.975 336.568L400.065 336.862C399.183 336.902 398.433 336.203 398.393 335.322V335.251C398.393 334.399 399.062 333.69 399.923 333.649L406.844 333.356C407.726 333.325 408.475 334.014 408.516 334.896Z" fill="#E2F497"/>
<path d="M427.17 365.254C427.394 365.549 427.494 365.883 427.494 366.217C427.494 366.704 427.271 367.19 426.856 367.504L421.323 371.669C420.624 372.195 419.611 372.053 419.074 371.345C418.547 370.645 418.689 369.632 419.399 369.105L424.92 364.94C425.63 364.403 426.643 364.545 427.17 365.254Z" fill="#E2F497"/>
<path d="M416.652 253.933C417.179 254.641 417.038 255.645 416.338 256.182C415.629 256.709 414.616 256.567 414.089 255.857L409.924 250.336C409.397 249.626 409.539 248.613 410.238 248.086C410.532 247.862 410.866 247.762 411.211 247.762C411.697 247.762 412.174 247.984 412.488 248.4L416.652 253.933Z" fill="#E2F497"/>
<path d="M397.663 315.471C397.876 315.755 397.978 316.089 397.978 316.434C397.978 316.92 397.765 317.396 397.349 317.71L391.817 321.875C391.108 322.413 390.105 322.27 389.567 321.561C389.04 320.852 389.182 319.849 389.881 319.312L395.415 315.147C396.123 314.62 397.136 314.762 397.663 315.471Z" fill="#E2F497"/>
<path d="M446.16 403.294C446.697 403.993 446.556 405.007 445.846 405.544C445.137 406.07 444.134 405.928 443.596 405.219L439.431 399.697C438.905 398.987 439.047 397.974 439.756 397.447C440.04 397.224 440.384 397.123 440.719 397.123C441.205 397.123 441.681 397.346 441.995 397.761L446.16 403.294Z" fill="#E2F497"/>
<path d="M416.652 386.696C417.179 387.405 417.038 388.408 416.338 388.945C415.629 389.472 414.616 389.331 414.089 388.631L409.924 383.098C409.397 382.389 409.539 381.376 410.238 380.849C410.532 380.636 410.866 380.534 411.201 380.534C411.697 380.534 412.174 380.748 412.488 381.163L416.652 386.696Z" fill="#E2F497"/>
<path d="M427.17 298.873C427.394 299.158 427.494 299.502 427.494 299.836C427.494 300.323 427.271 300.809 426.856 301.123L421.323 305.288C420.624 305.815 419.611 305.672 419.074 304.964C418.547 304.265 418.689 303.251 419.399 302.724L424.92 298.559C425.63 298.022 426.643 298.165 427.17 298.873Z" fill="#E2F497"/>
<path d="M446.16 370.098C446.697 370.808 446.556 371.821 445.846 372.348C445.137 372.874 444.134 372.732 443.596 372.034L439.431 366.501C438.905 365.791 439.047 364.788 439.756 364.251C440.04 364.039 440.374 363.937 440.719 363.937C441.205 363.937 441.681 364.15 441.995 364.566L446.16 370.098Z" fill="#E2F497"/>
<path d="M408.516 268.513C408.556 269.395 407.857 270.145 406.975 270.185L400.065 270.479C399.183 270.52 398.433 269.821 398.393 268.939V268.868C398.393 268.017 399.062 267.307 399.923 267.267L406.844 266.973C407.726 266.943 408.475 267.632 408.516 268.513Z" fill="#E2F497"/>
<path d="M446.16 303.717C446.697 304.427 446.556 305.44 445.846 305.967C445.137 306.494 444.134 306.351 443.596 305.653L439.431 300.12C438.905 299.41 439.047 298.407 439.756 297.87C440.04 297.658 440.374 297.556 440.719 297.556C441.205 297.556 441.681 297.769 441.995 298.184L446.16 303.717Z" fill="#E2F497"/>
<path d="M446.16 237.334C446.697 238.044 446.556 239.057 445.846 239.584C445.137 240.111 444.134 239.969 443.596 239.27L439.431 233.737C438.905 233.027 439.047 232.014 439.756 231.487C440.04 231.275 440.374 231.173 440.719 231.173C441.205 231.173 441.681 231.386 441.995 231.802L446.16 237.334Z" fill="#E2F497"/>
<path d="M387.145 303.717C387.672 304.427 387.53 305.44 386.83 305.967C386.122 306.494 385.109 306.351 384.582 305.653L380.417 300.12C379.879 299.41 380.031 298.407 380.731 297.87C381.025 297.658 381.359 297.556 381.694 297.556C382.19 297.556 382.666 297.769 382.98 298.184L387.145 303.717Z" fill="#E2F497"/>
<path d="M397.663 215.893C397.876 216.186 397.978 216.521 397.978 216.855C397.978 217.341 397.765 217.829 397.349 218.143L391.817 222.307C391.108 222.834 390.105 222.692 389.567 221.983C389.04 221.283 389.182 220.27 389.881 219.743L395.415 215.579C396.123 215.042 397.136 215.183 397.663 215.893Z" fill="#E2F497"/>
<path d="M416.652 287.118C417.179 287.827 417.038 288.84 416.338 289.367C415.629 289.905 414.616 289.763 414.089 289.054L409.924 283.52C409.397 282.821 409.539 281.808 410.238 281.271C410.522 281.059 410.866 280.957 411.201 280.957C411.688 280.957 412.174 281.17 412.488 281.596L416.652 287.118Z" fill="#E2F497"/>
<path d="M397.663 249.09C397.876 249.374 397.978 249.709 397.978 250.053C397.978 250.539 397.765 251.015 397.349 251.329L391.817 255.495C391.108 256.032 390.105 255.889 389.567 255.18C389.04 254.471 389.182 253.468 389.881 252.931L395.415 248.766C396.123 248.239 397.136 248.381 397.663 249.09Z" fill="#E2F497"/>
<path d="M416.652 220.738C417.179 221.447 417.038 222.461 416.338 222.988C415.629 223.525 414.616 223.373 414.089 222.674L409.924 217.14C409.397 216.431 409.539 215.428 410.238 214.891C410.522 214.679 410.866 214.577 411.201 214.577C411.688 214.577 412.174 214.79 412.488 215.216L416.652 220.738Z" fill="#E2F497"/>
<path d="M408.516 301.701C408.556 302.583 407.857 303.342 406.975 303.373L400.065 303.666C399.183 303.707 398.433 303.018 398.393 302.136V302.066C398.393 301.215 399.062 300.505 399.923 300.464L406.844 300.171C407.726 300.13 408.475 300.819 408.516 301.701Z" fill="#E2F497"/>
<path d="M427.17 398.44C427.394 398.733 427.494 399.068 427.494 399.412C427.494 399.899 427.271 400.375 426.856 400.69L421.323 404.854C420.624 405.391 419.611 405.249 419.074 404.54C418.547 403.83 418.689 402.827 419.399 402.29L424.92 398.126C425.63 397.599 426.643 397.741 427.17 398.44Z" fill="#E2F497"/>
<path d="M438.023 384.679C438.063 385.561 437.374 386.31 436.492 386.351L429.572 386.645C428.69 386.685 427.941 385.996 427.9 385.115V385.043C427.9 384.192 428.569 383.473 429.44 383.443L436.351 383.149C437.232 383.108 437.983 383.798 438.023 384.679Z" fill="#E2F497"/>
<path d="M408.516 368.082C408.556 368.963 407.857 369.723 406.975 369.753L400.065 370.047C399.183 370.088 398.433 369.399 398.393 368.517V368.446C398.393 367.596 399.062 366.886 399.923 366.845L406.844 366.552C407.726 366.511 408.475 367.2 408.516 368.082Z" fill="#E2F497"/>
<path d="M416.652 320.315C417.179 321.024 417.038 322.027 416.338 322.565C415.629 323.091 414.616 322.95 414.089 322.251L409.924 316.717C409.397 316.008 409.539 314.995 410.238 314.468C410.522 314.245 410.866 314.143 411.201 314.143C411.688 314.143 412.174 314.367 412.488 314.783L416.652 320.315Z" fill="#E2F497"/>
<path d="M387.145 237.334C387.672 238.044 387.53 239.057 386.83 239.584C386.122 240.111 385.109 239.969 384.582 239.27L380.417 233.737C379.879 233.027 380.031 232.014 380.731 231.487C381.025 231.275 381.359 231.173 381.694 231.173C382.19 231.173 382.666 231.386 382.98 231.802L387.145 237.334Z" fill="#E2F497"/>
<path d="M467.53 368.082C467.571 368.963 466.882 369.723 466 369.753L459.079 370.047C458.198 370.088 457.448 369.399 457.407 368.517V368.457C457.407 367.605 458.086 366.886 458.947 366.845L465.859 366.552C466.739 366.511 467.5 367.2 467.53 368.082Z" fill="#E2F497"/>
<path d="M456.678 381.852C456.9 382.136 457.002 382.48 457.002 382.815C457.002 383.301 456.779 383.777 456.364 384.092L450.831 388.256C450.132 388.793 449.118 388.652 448.591 387.942C448.054 387.243 448.197 386.23 448.905 385.693L454.439 381.528C455.138 381.001 456.151 381.143 456.678 381.852Z" fill="#E2F497"/>
<path d="M486.195 332.058C486.408 332.341 486.509 332.686 486.509 333.02C486.509 333.507 486.296 333.994 485.871 334.308L480.348 338.472C479.639 339.009 478.626 338.857 478.099 338.158C477.562 337.448 477.704 336.435 478.413 335.908L483.945 331.744C484.655 331.217 485.658 331.359 486.195 332.058Z" fill="#E2F497"/>
<path d="M486.195 265.677C486.408 265.962 486.509 266.306 486.509 266.64C486.509 267.127 486.296 267.613 485.871 267.927L480.348 272.092C479.639 272.619 478.626 272.476 478.099 271.778C477.562 271.069 477.704 270.055 478.413 269.528L483.945 265.363C484.655 264.836 485.658 264.979 486.195 265.677Z" fill="#E2F497"/>
<path d="M475.677 220.738C476.204 221.447 476.062 222.461 475.353 222.988C474.654 223.525 473.641 223.373 473.103 222.674L468.948 217.14C468.411 216.431 468.553 215.428 469.262 214.891C469.547 214.679 469.881 214.577 470.216 214.577C470.712 214.577 471.198 214.79 471.512 215.216L475.677 220.738Z" fill="#E2F497"/>
<path d="M475.677 287.118C476.204 287.827 476.062 288.84 475.353 289.367C474.654 289.905 473.641 289.763 473.103 289.054L468.948 283.52C468.411 282.821 468.553 281.808 469.262 281.271C469.547 281.059 469.881 280.957 470.216 280.957C470.712 280.957 471.198 281.17 471.512 281.596L475.677 287.118Z" fill="#E2F497"/>
<path d="M486.195 298.873C486.408 299.158 486.509 299.492 486.509 299.826C486.509 300.323 486.296 300.809 485.871 301.123L480.348 305.288C479.639 305.815 478.626 305.672 478.099 304.964C477.562 304.265 477.704 303.251 478.413 302.724L483.945 298.559C484.655 298.022 485.658 298.165 486.195 298.873Z" fill="#E2F497"/>
<path d="M456.678 348.657C456.9 348.95 457.002 349.284 457.002 349.629C457.002 350.115 456.779 350.591 456.364 350.905L450.831 355.07C450.132 355.597 449.118 355.456 448.591 354.756C448.054 354.047 448.197 353.034 448.905 352.507L454.439 348.342C455.138 347.805 456.151 347.957 456.678 348.657Z" fill="#E2F497"/>
<path d="M475.677 320.315C476.204 321.024 476.062 322.027 475.353 322.565C474.654 323.091 473.641 322.95 473.103 322.251L468.948 316.717C468.411 316.008 468.553 314.995 469.262 314.468C469.547 314.245 469.881 314.143 470.216 314.143C470.712 314.143 471.198 314.367 471.512 314.783L475.677 320.315Z" fill="#E2F497"/>
<path d="M467.53 268.513C467.571 269.395 466.882 270.145 466 270.185L459.079 270.479C458.198 270.52 457.448 269.821 457.407 268.939V268.878C457.407 268.027 458.086 267.307 458.947 267.267L465.859 266.973C466.739 266.943 467.5 267.632 467.53 268.513Z" fill="#E2F497"/>
<path d="M467.53 334.896C467.571 335.778 466.882 336.528 466 336.568L459.079 336.862C458.198 336.902 457.448 336.203 457.407 335.322V335.261C457.407 334.41 458.086 333.69 458.947 333.649L465.859 333.356C466.739 333.325 467.5 334.014 467.53 334.896Z" fill="#E2F497"/>
<path d="M467.53 301.701C467.571 302.583 466.882 303.342 466 303.373L459.079 303.666C458.198 303.707 457.448 303.018 457.407 302.136V302.076C457.407 301.225 458.086 300.505 458.947 300.464L465.859 300.171C466.739 300.13 467.5 300.819 467.53 301.701Z" fill="#E2F497"/>
<path d="M475.677 386.696C476.204 387.405 476.062 388.408 475.353 388.945C474.654 389.472 473.641 389.331 473.103 388.631L468.948 383.098C468.411 382.389 468.553 381.376 469.262 380.849C469.547 380.636 469.881 380.534 470.226 380.534C470.712 380.534 471.198 380.748 471.512 381.163L475.677 386.696Z" fill="#E2F497"/>
<path d="M475.677 253.933C476.204 254.641 476.062 255.645 475.353 256.182C474.654 256.709 473.641 256.567 473.103 255.857L468.948 250.336C468.411 249.626 468.553 248.613 469.262 248.086C469.547 247.862 469.891 247.762 470.226 247.762C470.712 247.762 471.198 247.984 471.512 248.4L475.677 253.933Z" fill="#E2F497"/>
<path d="M467.53 235.318C467.571 236.2 466.882 236.949 466 236.99L459.079 237.283C458.198 237.324 457.448 236.635 457.407 235.753V235.693C457.407 234.842 458.086 234.122 458.947 234.082L465.859 233.788C466.739 233.747 467.5 234.436 467.53 235.318Z" fill="#E2F497"/>
<path d="M497.048 384.679C497.078 385.561 496.389 386.31 495.507 386.351L488.587 386.645C487.705 386.685 486.955 385.996 486.915 385.115V385.053C486.915 384.203 487.594 383.473 488.455 383.443L495.376 383.149C496.257 383.108 497.007 383.798 497.048 384.679Z" fill="#E2F497"/>
<path d="M497.048 351.494C497.078 352.375 496.389 353.125 495.507 353.166L488.587 353.46C487.705 353.49 486.955 352.801 486.915 351.92V351.858C486.915 351.007 487.594 350.289 488.455 350.248L495.376 349.954C496.257 349.913 497.007 350.613 497.048 351.494Z" fill="#E2F497"/>
<path d="M497.048 318.298C497.078 319.179 496.389 319.929 495.507 319.97L488.587 320.264C487.705 320.305 486.955 319.615 486.915 318.734V318.673C486.915 317.821 487.594 317.092 488.455 317.062L495.376 316.768C496.257 316.728 497.007 317.417 497.048 318.298Z" fill="#E2F497"/>
<path d="M497.048 251.918C497.078 252.798 496.389 253.549 495.507 253.589L488.587 253.883C487.705 253.924 486.955 253.235 486.915 252.353V252.292C486.915 251.441 487.594 250.712 488.455 250.681L495.376 250.377C496.257 250.347 497.007 251.036 497.048 251.918Z" fill="#E2F497"/>
<path d="M497.048 218.721C497.078 219.602 496.389 220.362 495.507 220.392L488.587 220.696C487.705 220.727 486.955 220.038 486.915 219.156V219.096C486.915 218.245 487.594 217.525 488.455 217.484L495.376 217.19C496.257 217.15 497.007 217.839 497.048 218.721Z" fill="#E2F497"/>
<path d="M505.184 403.294C505.711 403.993 505.569 405.007 504.87 405.544C504.161 406.07 503.147 405.928 502.62 405.219L498.456 399.697C497.919 398.987 498.061 397.974 498.77 397.447C499.064 397.224 499.398 397.123 499.733 397.123C500.219 397.123 500.705 397.346 501.019 397.761L505.184 403.294Z" fill="#E2F497"/>
<path d="M505.184 336.913C505.711 337.613 505.569 338.626 504.87 339.163C504.161 339.69 503.147 339.547 502.62 338.839L498.456 333.306C497.919 332.606 498.061 331.593 498.77 331.066C499.064 330.844 499.398 330.742 499.733 330.742C500.219 330.742 500.705 330.965 501.019 331.38L505.184 336.913Z" fill="#E2F497"/>
<path d="M497.048 285.101C497.078 285.993 496.389 286.743 495.507 286.773L488.587 287.077C487.705 287.107 486.955 286.418 486.915 285.537V285.476C486.915 284.625 487.594 283.906 488.455 283.865L495.376 283.571C496.257 283.531 497.007 284.22 497.048 285.101Z" fill="#E2F497"/>
<path d="M486.195 398.44C486.408 398.723 486.509 399.068 486.509 399.402C486.509 399.888 486.296 400.375 485.871 400.69L480.348 404.854C479.639 405.391 478.626 405.249 478.099 404.54C477.562 403.83 477.704 402.827 478.413 402.29L483.945 398.126C484.655 397.599 485.658 397.741 486.195 398.44Z" fill="#E2F497"/>
<path d="M456.678 282.275C456.9 282.568 457.002 282.903 457.002 283.237C457.002 283.724 456.779 284.21 456.364 284.524L450.831 288.689C450.132 289.216 449.118 289.074 448.591 288.375C448.054 287.665 448.197 286.652 448.905 286.125L454.439 281.961C455.138 281.423 456.151 281.565 456.678 282.275Z" fill="#E2F497"/>
<path d="M475.677 353.511C476.204 354.21 476.062 355.223 475.353 355.75C474.654 356.288 473.641 356.145 473.103 355.436L468.948 349.903C468.411 349.204 468.553 348.191 469.262 347.653C469.547 347.441 469.881 347.339 470.216 347.339C470.712 347.339 471.198 347.553 471.512 347.978L475.677 353.511Z" fill="#E2F497"/>
<path d="M486.195 232.49C486.408 232.775 486.509 233.109 486.509 233.443C486.509 233.94 486.296 234.426 485.871 234.74L480.348 238.895C479.639 239.432 478.626 239.29 478.099 238.581C477.562 237.882 477.704 236.869 478.413 236.331L483.945 232.166C484.655 231.639 485.658 231.782 486.195 232.49Z" fill="#E2F497"/>
<path d="M486.195 365.254C486.408 365.538 486.509 365.883 486.509 366.217C486.509 366.704 486.296 367.19 485.871 367.504L480.348 371.669C479.639 372.195 478.626 372.053 478.099 371.345C477.562 370.645 477.704 369.632 478.413 369.105L483.945 364.94C484.655 364.403 485.658 364.545 486.195 365.254Z" fill="#E2F497"/>
<path d="M505.184 270.53C505.711 271.23 505.569 272.243 504.87 272.77C504.161 273.307 503.147 273.165 502.62 272.456L498.456 266.923C497.919 266.224 498.061 265.211 498.77 264.684C499.064 264.461 499.398 264.359 499.733 264.359C500.219 264.359 500.705 264.582 501.019 264.998L505.184 270.53Z" fill="#E2F497"/>
<path d="M456.678 249.09C456.9 249.374 457.002 249.719 457.002 250.053C457.002 250.539 456.779 251.015 456.364 251.329L450.831 255.495C450.132 256.032 449.118 255.889 448.591 255.18C448.054 254.471 448.197 253.468 448.905 252.931L454.439 248.766C455.138 248.239 456.151 248.381 456.678 249.09Z" fill="#E2F497"/>
<path d="M456.678 215.893C456.9 216.186 457.002 216.521 457.002 216.855C457.002 217.341 456.779 217.829 456.364 218.143L450.831 222.307C450.132 222.834 449.118 222.692 448.591 221.983C448.054 221.283 448.197 220.27 448.905 219.743L454.439 215.579C455.138 215.042 456.151 215.183 456.678 215.893Z" fill="#E2F497"/>
<path d="M456.678 315.471C456.9 315.755 457.002 316.1 457.002 316.434C457.002 316.92 456.779 317.396 456.364 317.71L450.831 321.875C450.132 322.413 449.118 322.27 448.591 321.561C448.054 320.852 448.197 319.849 448.905 319.312L454.439 315.147C455.138 314.62 456.151 314.762 456.678 315.471Z" fill="#E2F497"/>
<path d="M505.184 370.098C505.711 370.808 505.569 371.821 504.87 372.348C504.161 372.874 503.147 372.732 502.62 372.034L498.456 366.501C497.919 365.791 498.061 364.788 498.77 364.251C499.064 364.039 499.398 363.937 499.733 363.937C500.219 363.937 500.705 364.15 501.019 364.566L505.184 370.098Z" fill="#E2F497"/>
<path d="M515.703 348.657C515.916 348.95 516.018 349.284 516.018 349.619C516.018 350.115 515.805 350.591 515.389 350.905L509.857 355.07C509.148 355.597 508.134 355.456 507.607 354.756C507.08 354.047 507.222 353.034 507.921 352.507L513.454 348.342C514.163 347.805 515.176 347.957 515.703 348.657Z" fill="#E2F497"/>
<path d="M515.703 249.09C515.916 249.374 516.018 249.709 516.018 250.053C516.018 250.539 515.805 251.015 515.389 251.329L509.857 255.495C509.148 256.032 508.134 255.889 507.607 255.18C507.08 254.471 507.222 253.468 507.921 252.931L513.454 248.766C514.163 248.239 515.176 248.381 515.703 249.09Z" fill="#E2F497"/>
<path d="M515.703 282.275C515.916 282.568 516.018 282.903 516.018 283.237C516.018 283.724 515.805 284.21 515.389 284.524L509.857 288.689C509.148 289.216 508.134 289.074 507.607 288.375C507.08 287.665 507.222 286.652 507.921 286.125L513.454 281.961C514.163 281.423 515.176 281.565 515.703 282.275Z" fill="#E2F497"/>
<path d="M505.184 303.717C505.711 304.427 505.569 305.44 504.87 305.967C504.161 306.494 503.147 306.351 502.62 305.653L498.456 300.12C497.919 299.41 498.061 298.407 498.77 297.87C499.064 297.658 499.398 297.556 499.733 297.556C500.219 297.556 500.705 297.769 501.019 298.184L505.184 303.717Z" fill="#E2F497"/>
<path d="M505.184 237.334C505.711 238.044 505.569 239.057 504.87 239.584C504.161 240.111 503.147 239.969 502.62 239.27L498.456 233.737C497.919 233.027 498.061 232.014 498.77 231.487C499.064 231.275 499.398 231.173 499.733 231.173C500.219 231.173 500.705 231.386 501.019 231.802L505.184 237.334Z" fill="#E2F497"/>
<path d="M515.703 215.893C515.916 216.186 516.018 216.521 516.018 216.855C516.018 217.341 515.805 217.829 515.389 218.143L509.857 222.307C509.148 222.834 508.134 222.692 507.607 221.983C507.08 221.283 507.222 220.27 507.921 219.743L513.454 215.579C514.163 215.042 515.176 215.183 515.703 215.893Z" fill="#E2F497"/>
<path d="M515.703 381.852C515.916 382.136 516.018 382.47 516.018 382.815C516.018 383.301 515.805 383.777 515.389 384.092L509.857 388.256C509.148 388.793 508.134 388.652 507.607 387.942C507.08 387.243 507.222 386.23 507.921 385.693L513.454 381.528C514.163 381.001 515.176 381.143 515.703 381.852Z" fill="#E2F497"/>
<path d="M515.703 315.471C515.916 315.755 516.018 316.089 516.018 316.434C516.018 316.92 515.805 317.396 515.389 317.71L509.857 321.875C509.148 322.413 508.134 322.27 507.607 321.561C507.08 320.852 507.222 319.849 507.921 319.312L513.454 315.147C514.163 314.62 515.176 314.762 515.703 315.471Z" fill="#E2F497"/>
</g>
</g>
<mask id="mask3_632_2674" style="mask-type:luminance" maskUnits="userSpaceOnUse" x="223" y="115" width="341" height="284">
<path d="M563.053 115.556V366.035H493.874C469.951 386.078 439.115 398.146 405.464 398.146C371.812 398.146 340.977 386.078 317.053 366.035H223.899V115.556H563.053Z" fill="white"/>
</mask>
<g mask="url(#mask3_632_2674)">
<path d="M441.555 175.241C439.65 181.25 435.621 184.834 430.008 183.75L432.585 208.845L408.422 229.139L400.016 215.298L396.091 208.855V201.722L391.676 198.184C384.298 192.269 380.005 183.335 380.005 173.882V153.277C380.052 153.296 380.109 153.305 380.157 153.314C383.817 154.079 387.619 153.796 391.308 153.183C395.573 152.484 399.799 151.333 403.573 149.239C403.714 150.418 404.318 151.588 405.195 152.39C406.781 153.834 409.026 154.315 411.167 154.334C414.167 154.353 417.168 153.551 419.762 152.031C421.366 155.73 423.092 159.381 424.942 162.966V163.06C424.951 163.051 424.961 163.041 424.97 163.032C426.932 161.107 429.451 159.9 432.083 159.664C433.451 159.541 434.848 159.683 436.216 160.117C442.168 162.013 443.602 168.796 441.555 175.241Z" fill="white"/>
<path d="M412.944 197.87L408.271 201.615C404.864 204.352 400.095 204.352 396.68 201.617L396.377 201.371C396.183 201.215 395.899 201.243 395.74 201.437C395.582 201.631 395.612 201.916 395.806 202.074L396.111 202.321C397.986 203.824 400.233 204.574 402.477 204.574C404.723 204.574 406.967 203.824 408.838 202.321L412.039 199.756C412.611 199.297 412.944 198.604 412.944 197.87Z" fill="#181D20"/>
<path d="M432.555 152.493L432.084 159.663C429.452 159.899 426.933 161.107 424.971 163.031C424.961 163.012 424.952 162.984 424.942 162.965C423.093 159.38 421.366 155.729 419.763 152.031C417.168 153.55 414.168 154.352 411.168 154.333C409.027 154.314 406.781 153.833 405.196 152.389C404.319 151.587 403.715 150.417 403.574 149.238C399.8 151.333 395.573 152.483 391.308 153.182C387.62 153.795 383.818 154.078 380.157 153.313C380.11 153.304 380.053 153.295 380.006 153.276C376.393 152.502 372.931 150.606 370.836 147.568C368.714 144.484 368.242 140.163 370.204 136.974C372.308 133.568 377.091 132.115 380.733 133.794C378.969 131.143 378.29 127.7 379.28 124.661C380.262 121.633 383.007 119.152 386.186 118.822C389.252 118.502 392.271 120.133 394.328 122.426C396.394 124.718 397.648 127.615 398.762 130.493C399.601 127.888 402.224 126.029 404.951 125.926C407.678 125.822 410.367 127.397 411.753 129.747C413.15 132.096 413.263 135.115 412.234 137.634L418.989 137.747C426.895 137.888 433.075 144.606 432.555 152.493Z" fill="#181D20"/>
<path d="M432.029 181.176C431.803 181.176 431.608 181.007 431.581 180.777C431.551 180.529 431.727 180.304 431.975 180.274C434.266 179.998 436.321 178.082 436.755 175.817C436.978 174.656 436.793 173.466 436.248 172.552C435.667 171.574 434.655 170.907 433.61 170.813C432.521 170.716 431.418 171.271 430.926 172.169C430.823 172.357 430.598 172.445 430.397 172.384C430.193 172.322 430.059 172.124 430.079 171.911C430.284 169.624 430.638 167.227 431.816 165.199C432.394 164.205 433.088 163.458 433.881 162.979C434.852 162.389 436.008 162.22 436.975 162.526C438.096 162.882 438.926 163.893 438.993 164.985C439.008 165.235 438.818 165.449 438.569 165.464C438.324 165.479 438.104 165.29 438.089 165.04C438.046 164.325 437.462 163.63 436.7 163.389C435.982 163.161 435.102 163.296 434.349 163.753C433.688 164.154 433.1 164.793 432.599 165.654C431.735 167.14 431.347 168.88 431.126 170.626C431.849 170.103 432.781 169.827 433.692 169.912C435.021 170.031 436.299 170.866 437.026 172.088C437.683 173.191 437.908 174.612 437.644 175.987C437.131 178.665 434.793 180.846 432.084 181.173C432.065 181.175 432.047 181.176 432.029 181.176Z" fill="#181D20"/>
<path d="M389.022 169.761C389.022 171.639 387.645 173.162 385.947 173.162C384.249 173.162 382.873 171.639 382.873 169.761C382.873 167.883 384.249 166.36 385.947 166.36C387.645 166.36 389.022 167.883 389.022 169.761Z" fill="#181D20"/>
<path d="M407.712 169.761C407.712 171.639 406.335 173.162 404.637 173.162C402.94 173.162 401.562 171.639 401.562 169.761C401.562 167.883 402.94 166.36 404.637 166.36C406.335 166.36 407.712 167.883 407.712 169.761Z" fill="#181D20"/>
<path d="M388.496 161.812C386.16 161.07 383.531 161.484 381.629 163.076C381.25 163.393 381.088 163.976 381.419 164.394C381.72 164.772 382.334 164.941 382.738 164.603C382.924 164.446 383.118 164.299 383.322 164.165C383.421 164.1 383.523 164.039 383.627 163.979C383.638 163.973 383.65 163.966 383.662 163.961C383.716 163.933 383.771 163.906 383.825 163.879C384.045 163.774 384.27 163.683 384.5 163.604C384.616 163.564 384.732 163.53 384.85 163.495C384.871 163.489 384.89 163.484 384.906 163.48C384.97 163.465 385.035 163.451 385.101 163.438C385.34 163.39 385.581 163.357 385.824 163.337C385.945 163.328 386.067 163.321 386.189 163.318C386.249 163.317 386.31 163.316 386.371 163.316C386.374 163.316 386.372 163.316 386.374 163.316C386.382 163.317 386.378 163.317 386.392 163.318C386.635 163.333 386.876 163.356 387.117 163.397C387.236 163.417 387.356 163.441 387.474 163.468C387.533 163.482 387.592 163.497 387.652 163.513C387.667 163.517 387.675 163.518 387.682 163.52C387.693 163.524 387.7 163.526 387.715 163.531C388.184 163.679 388.76 163.572 388.964 163.062C389.137 162.634 388.998 161.972 388.496 161.812Z" fill="#181D20"/>
<path d="M401.633 163.062C401.837 163.572 402.413 163.679 402.882 163.531C402.898 163.526 402.904 163.524 402.916 163.52C402.922 163.518 402.93 163.517 402.946 163.513C403.005 163.497 403.064 163.482 403.123 163.468C403.242 163.441 403.361 163.417 403.481 163.397C403.721 163.356 403.962 163.333 404.206 163.318C404.219 163.317 404.215 163.317 404.223 163.316C404.226 163.316 404.223 163.316 404.227 163.316C404.287 163.316 404.348 163.317 404.409 163.318C404.531 163.321 404.652 163.328 404.773 163.337C405.016 163.357 405.258 163.39 405.497 163.438C405.562 163.451 405.627 163.465 405.691 163.48C405.707 163.484 405.727 163.489 405.748 163.495C405.865 163.53 405.981 163.564 406.097 163.604C406.327 163.683 406.552 163.774 406.772 163.879C406.828 163.906 406.882 163.933 406.935 163.961C406.947 163.966 406.96 163.973 406.971 163.979C407.074 164.039 407.176 164.1 407.276 164.165C407.48 164.299 407.673 164.446 407.86 164.603C408.264 164.941 408.877 164.772 409.178 164.394C409.509 163.976 409.347 163.393 408.969 163.076C407.067 161.484 404.438 161.07 402.102 161.812C401.599 161.972 401.461 162.634 401.633 163.062Z" fill="#181D20"/>
<path d="M397.605 185.934C397.931 186.666 398.761 188.184 400.279 188.934C401.444 189.51 402.803 189.531 404.325 188.999C405.846 188.467 406.9 187.599 407.457 186.421C408.184 184.887 407.899 183.179 407.703 182.401L397.605 185.934ZM402.244 190.289C401.399 190.289 400.606 190.107 399.87 189.742C397.495 188.563 396.615 185.915 396.579 185.803C396.502 185.569 396.626 185.318 396.859 185.236L407.854 181.39C408.088 181.307 408.341 181.429 408.427 181.66C408.468 181.771 409.413 184.395 408.28 186.801C407.615 188.21 406.386 189.237 404.623 189.854C403.792 190.144 402.998 190.289 402.244 190.289Z" fill="#181D20"/>
<path d="M389.035 184.121C388.918 184.121 388.804 184.076 388.718 183.992C388.61 183.886 388.562 183.732 388.59 183.582L391.607 168.108C391.655 167.862 391.894 167.701 392.138 167.751C392.384 167.799 392.544 168.036 392.496 168.281L389.61 183.082L397.464 181.391C397.717 181.334 397.949 181.494 398.003 181.737C398.055 181.982 397.899 182.223 397.655 182.275L389.13 184.111C389.099 184.117 389.067 184.121 389.035 184.121Z" fill="#181D20"/>
<path d="M334.32 418.391C334.298 418.391 334.275 418.389 334.253 418.385C334.006 418.349 333.835 418.118 333.872 417.872L360.407 239.209C360.443 238.962 360.677 238.79 360.92 238.828C361.168 238.864 361.339 239.095 361.302 239.341L334.766 418.004C334.734 418.229 334.54 418.391 334.32 418.391Z" fill="#181D20"/>
<path d="M344.113 329.91H326.968C320.993 329.91 316.104 325.021 316.104 319.046V305.539C316.104 299.563 320.993 294.675 326.968 294.675H344.113C350.088 294.675 354.977 299.563 354.977 305.539V319.046C354.977 325.021 350.088 329.91 344.113 329.91Z" fill="white"/>
<path d="M376.342 324.628V335.191H254.741C251.448 335.191 248.782 330.458 248.782 324.628H376.342Z" fill="#181D20"/>
<path d="M353.897 324.627H248.782L230.29 257.942C229.398 254.74 231.81 251.578 235.124 251.578H329.811C332.07 251.578 334.047 253.078 334.654 255.257L353.897 324.627Z" fill="#181D20"/>
<path d="M349.845 325.082H253.764C253.514 325.082 253.311 324.879 253.311 324.629C253.311 324.379 253.514 324.177 253.764 324.177H349.249L330.166 255.379C330.099 255.138 330.24 254.888 330.481 254.822C330.726 254.755 330.971 254.896 331.038 255.137L350.28 324.508C350.318 324.644 350.29 324.791 350.205 324.903C350.119 325.015 349.986 325.082 349.845 325.082Z" fill="#F1F1FA"/>
<path d="M396.295 348.293H366.545C363.737 348.293 361.428 345.983 361.428 343.175V343.023C361.428 341.676 361.955 340.449 362.826 339.528H353.24C350.423 339.528 348.123 337.217 348.123 334.411V334.258C348.123 331.441 350.423 329.142 353.24 329.142H372.645V324.338L362.359 327.591C359.684 328.442 356.786 326.942 355.945 324.257L355.894 324.105C355.053 321.43 356.554 318.532 359.239 317.691L383.791 309.929C386.132 309.189 388.635 310.233 389.8 312.3L394.137 317.721L395.565 337.906L396.295 348.293Z" fill="white"/>
<path d="M374.789 339.98H362.827C362.576 339.98 362.374 339.778 362.374 339.528C362.374 339.277 362.576 339.075 362.827 339.075H374.789C375.04 339.075 375.242 339.277 375.242 339.528C375.242 339.778 375.04 339.98 374.789 339.98Z" fill="#181D20"/>
<path d="M471.766 354.588H396.855C396.617 354.588 396.42 354.404 396.403 354.168L393.164 308.322C393.155 308.196 393.199 308.073 393.284 307.981C393.37 307.889 393.49 307.837 393.615 307.837H452.578L434.926 240.953C434.862 240.711 435.006 240.463 435.248 240.399C435.492 240.332 435.738 240.481 435.801 240.721L453.604 308.174C453.64 308.31 453.611 308.455 453.525 308.565C453.439 308.677 453.307 308.743 453.166 308.743H394.101L397.277 353.683H471.766C472.016 353.683 472.219 353.885 472.219 354.135C472.219 354.386 472.016 354.588 471.766 354.588Z" fill="#181D20"/>
</g>
<path d="M244.048 190.744C244.048 244.114 200.783 287.379 147.412 287.379C94.042 287.379 50.7764 244.114 50.7764 190.744C50.7764 137.373 94.042 94.1074 147.412 94.1074C200.783 94.1074 244.048 137.373 244.048 190.744Z" fill="#E2F497"/>
<path d="M147.412 90.0259C91.8765 90.0259 46.6954 135.208 46.6954 190.743C46.6954 246.279 91.8765 291.46 147.412 291.46C202.947 291.46 248.129 246.279 248.129 190.743C248.129 135.208 202.947 90.0259 147.412 90.0259ZM147.412 292.365C91.3776 292.365 45.79 246.777 45.79 190.743C45.79 134.709 91.3776 89.1206 147.412 89.1206C203.447 89.1206 249.034 134.709 249.034 190.743C249.034 246.777 203.447 292.365 147.412 292.365Z" fill="#181D20"/>
<mask id="mask4_632_2674" style="mask-type:luminance" maskUnits="userSpaceOnUse" x="50" y="94" width="223" height="194">
<path d="M272.567 152.883V200.697H243.539C238.559 249.397 197.42 287.381 147.417 287.381C94.0381 287.381 50.7744 244.117 50.7744 190.738C50.7744 137.37 94.0381 94.1058 147.417 94.1058C187.352 94.1058 221.624 118.328 236.343 152.883H272.567Z" fill="white"/>
</mask>
<g mask="url(#mask4_632_2674)">
<path d="M242.896 309.197C237.932 309.197 233.62 305.515 232.96 300.462C224.303 234.088 195.707 225.582 195.419 225.504C195.58 225.548 195.665 225.562 195.665 225.562L199.898 205.949C201.129 206.216 212.273 208.935 224.157 222.394C238.836 239.018 248.491 264.41 252.856 297.867C253.572 303.361 249.699 308.395 244.206 309.112C243.766 309.169 243.328 309.197 242.896 309.197Z" fill="#3E4A4F"/>
<path d="M174.445 303.473H127.81V269.247H174.445V303.473Z" fill="#181D20"/>
<path d="M208.51 154.278C208.51 157.498 208.273 160.671 207.8 163.754C205.948 175.965 195.497 185.012 183.148 185.012H111.659C99.6204 185.012 89.1148 176.439 87.1542 164.557C86.5979 161.21 86.3149 157.78 86.3149 154.278C86.3149 120.125 113.674 101.521 147.418 101.521C151.585 101.521 155.652 101.803 159.583 102.368C187.489 106.354 208.51 124.338 208.51 154.278Z" fill="white"/>
<path d="M208.51 154.278C208.51 157.498 208.273 160.671 207.799 163.754C205.948 175.965 195.497 185.012 183.148 185.012H135.999C123.961 185.012 113.455 176.439 111.495 164.557C110.938 161.21 110.655 157.78 110.655 154.278C110.655 124.347 131.667 106.354 159.583 102.368C187.489 106.354 208.51 124.338 208.51 154.278Z" fill="#B66DFF"/>
<path d="M91.1584 127.113C85.6625 127.113 81.1915 131.584 81.1915 137.079V153.256C81.1915 158.751 85.6625 163.222 91.1584 163.222H93.6435C99.1398 163.222 103.61 158.751 103.61 153.256V137.079C103.61 131.584 99.1398 127.113 93.6435 127.113H91.1584ZM93.6435 164.127H91.1584C85.1636 164.127 80.2861 159.25 80.2861 153.256V137.079C80.2861 131.085 85.1636 126.208 91.1584 126.208H93.6435C99.6386 126.208 104.516 131.085 104.516 137.079V153.256C104.516 159.25 99.6386 164.127 93.6435 164.127Z" fill="#181D20"/>
<path d="M162.542 148.677C162.542 154.652 157.964 159.494 152.316 159.494C146.67 159.494 142.091 154.652 142.091 148.677C142.091 142.703 146.67 137.86 152.316 137.86C157.964 137.86 162.542 142.703 162.542 148.677Z" fill="#E2F497"/>
<path d="M203.443 148.677C203.443 154.652 198.866 159.494 193.218 159.494C187.571 159.494 182.993 154.652 182.993 148.677C182.993 142.703 187.571 137.86 193.218 137.86C198.866 137.86 203.443 142.703 203.443 148.677Z" fill="#E2F497"/>
<path d="M165.71 175.645H104.637C98.0356 175.645 92.666 170.275 92.666 163.673C92.666 163.423 92.8679 163.221 93.1187 163.221C93.3686 163.221 93.5714 163.423 93.5714 163.673C93.5714 169.775 98.5353 174.739 104.637 174.739H165.71C165.961 174.739 166.163 174.942 166.163 175.192C166.163 175.443 165.961 175.645 165.71 175.645Z" fill="#181D20"/>
<path d="M167.544 179.375H147.906C145.463 179.375 143.465 177.376 143.465 174.933V173.874C143.465 171.432 145.463 169.433 147.906 169.433H167.544C169.987 169.433 171.986 171.432 171.986 173.874V174.933C171.986 177.376 169.987 179.375 167.544 179.375Z" fill="#181D20"/>
<path d="M137.136 194.515H163.611V186.969H137.136V194.515ZM164.064 195.42H136.684C136.434 195.42 136.231 195.217 136.231 194.967V186.516C136.231 186.266 136.434 186.063 136.684 186.063H164.064C164.314 186.063 164.516 186.266 164.516 186.516V194.967C164.516 195.217 164.314 195.42 164.064 195.42Z" fill="#181D20"/>
<path d="M88.5361 228.434C88.5361 225.215 88.7731 222.041 89.2473 218.958C91.0988 206.747 101.55 197.7 113.898 197.7H185.387C197.426 197.7 207.932 206.272 209.892 218.156C210.449 221.503 210.731 224.931 210.731 228.434C210.731 262.587 183.372 281.191 149.629 281.191C145.461 281.191 141.394 280.909 137.464 280.343C109.557 276.358 88.5361 258.374 88.5361 228.434Z" fill="white"/>
<path d="M204.626 221.727C204.626 226.598 202.638 231.029 199.419 234.24C196.208 237.45 191.786 239.447 186.906 239.447H138.18C128.431 239.447 120.46 231.468 120.46 221.727C120.46 216.857 122.457 212.426 125.667 209.215C128.878 206.005 133.309 204.008 138.18 204.008H186.906C196.656 204.008 204.626 211.979 204.626 221.727Z" fill="#D2AEF7"/>
<path d="M122.721 274.588C122.626 274.588 122.53 274.558 122.448 274.496C116.647 270.095 113.684 263.67 112.221 259.053C110.298 252.989 109.763 246.626 109.47 240.653C108.818 227.334 109.317 213.873 110.954 200.642C110.985 200.394 111.209 200.218 111.458 200.248C111.706 200.279 111.883 200.504 111.852 200.753C110.222 213.932 109.725 227.341 110.375 240.609C110.664 246.521 111.193 252.814 113.084 258.779C114.507 263.27 117.383 269.517 122.995 273.775C123.194 273.926 123.234 274.209 123.083 274.409C122.993 274.526 122.858 274.588 122.721 274.588Z" fill="#181D20"/>
<path d="M82.3714 198.153C76.6303 198.153 71.96 202.823 71.96 208.564V240.883C71.96 246.622 76.6303 251.294 82.3714 251.294H94.6998C100.441 251.294 105.111 246.622 105.111 240.883V208.564C105.111 202.823 100.441 198.153 94.6998 198.153H82.3714ZM94.6998 252.199H82.3714C76.1313 252.199 71.0547 247.122 71.0547 240.883V208.564C71.0547 202.324 76.1313 197.247 82.3714 197.247H94.6998C100.94 197.247 106.016 202.324 106.016 208.564V240.883C106.016 247.122 100.94 252.199 94.6998 252.199Z" fill="#181D20"/>
<path d="M174.932 157.34H166.557C166.557 157.34 165.665 165.283 174.501 165.283C183.338 165.283 182.322 157.34 182.322 157.34H174.932Z" fill="white"/>
<path d="M238.934 204.007C238.259 210.527 236.162 222.593 229.604 234.668C220.676 251.138 201.789 270.764 162.547 270.764C124.782 270.764 104.171 258.014 93.5191 247.316C81.4814 235.224 78.9278 222.939 78.6724 221.581L98.3989 217.924C99 220.459 107.254 250.701 162.547 250.701C186.13 250.701 202.756 242.091 211.967 225.101C216.299 217.121 218.031 209.023 218.733 204.007H238.934Z" fill="#181D20"/>
<path d="M241.451 190.216V201.854H216.792V190.216H241.451Z" fill="white"/>
<path d="M237.75 188.492C235.093 188.492 232.394 188.089 229.731 187.242C222.984 185.095 217.477 180.45 214.224 174.162C210.972 167.873 210.363 160.694 212.509 153.948L212.871 152.81C213.864 149.69 217.196 147.964 220.317 148.959C223.437 149.951 225.161 153.286 224.168 156.404L223.807 157.542C222.62 161.272 222.957 165.239 224.755 168.714C226.552 172.19 229.596 174.757 233.325 175.944C241.024 178.393 249.278 174.124 251.726 166.427L252.089 165.288C253.083 162.17 256.416 160.447 259.536 161.437C262.656 162.43 264.379 165.765 263.386 168.884L263.024 170.022C259.44 181.285 248.985 188.492 237.75 188.492Z" fill="#181D20"/>
</g>
<path d="M322.191 439.234C322.187 439.234 322.185 439.234 322.181 439.234C307.951 439.228 296.375 427.645 296.375 413.415V388.554C296.375 378.327 288.054 370.005 277.825 370.005C267.598 370.005 259.277 378.327 259.277 388.554V401.316C259.277 412.709 250.008 421.978 238.616 421.978C227.223 421.978 217.955 412.709 217.955 401.316V312.413C217.955 302.465 209.861 294.371 199.912 294.371C189.964 294.371 181.871 302.465 181.871 312.413V335.401C181.871 346.094 173.17 354.794 162.477 354.794C151.783 354.794 143.083 346.094 143.083 335.401V295.893C143.083 295.333 143.537 294.88 144.097 294.88C144.656 294.88 145.11 295.333 145.11 295.893V335.401C145.11 344.976 152.9 352.768 162.477 352.768C172.053 352.768 179.844 344.976 179.844 335.401V312.413C179.844 301.347 188.846 292.345 199.912 292.345C210.978 292.345 219.981 301.347 219.981 312.413V401.316C219.981 411.592 228.341 419.951 238.616 419.951C248.891 419.951 257.25 411.592 257.25 401.316V388.554C257.25 377.208 266.48 367.979 277.825 367.979C289.171 367.979 298.401 377.208 298.401 388.554V413.415C298.401 426.529 309.069 437.201 322.182 437.207C322.185 437.207 322.188 437.207 322.191 437.207C328.545 437.207 334.517 434.735 339.011 430.242C343.507 425.748 345.983 419.772 345.983 413.415V398.146C345.983 397.586 346.437 397.133 346.996 397.133C347.556 397.133 348.009 397.586 348.009 398.146V413.415C348.009 420.314 345.323 426.798 340.444 431.675C335.567 436.549 329.085 439.234 322.191 439.234Z" fill="#B66DFF"/>
<path d="M326.266 92.2162C306.211 92.2162 289.896 108.532 289.896 128.587C289.896 148.642 306.211 164.958 326.266 164.958C334.823 164.958 343.136 161.926 349.676 156.421C349.797 156.32 349.96 156.29 350.108 156.336L362.329 160.319L357.47 147.616C357.42 147.487 357.433 147.341 357.504 147.222C360.863 141.606 362.638 135.162 362.638 128.587C362.638 108.532 346.321 92.2162 326.266 92.2162ZM326.266 165.863C305.713 165.863 288.99 149.141 288.99 128.587C288.99 108.032 305.713 91.3109 326.266 91.3109C346.821 91.3109 363.544 108.032 363.544 128.587C363.544 135.252 361.764 141.786 358.393 147.498L363.513 160.881C363.576 161.044 363.539 161.229 363.419 161.355C363.298 161.481 363.115 161.527 362.95 161.473L350.066 157.274C343.394 162.815 334.951 165.863 326.266 165.863Z" fill="#181D20"/>
<path d="M303.169 70.1209C303.169 94.6636 283.278 114.555 258.736 114.555C247.579 114.555 237.385 110.441 229.583 103.662L212.052 108.322L220.139 92.1703C216.42 85.6755 214.292 78.1467 214.292 70.1209C214.292 45.5791 234.193 25.6772 258.736 25.6772C283.278 25.6772 303.169 45.5791 303.169 70.1209Z" fill="#D2AEF6"/>
<path d="M190.268 13.7031C189.421 13.7031 188.571 13.733 187.718 13.7928C178.146 14.4591 169.406 18.8128 163.109 26.0528C156.81 33.2909 153.709 42.548 154.374 52.1182C155.039 61.6885 159.392 70.4277 166.631 76.7252C173.164 82.4098 181.531 85.544 190.189 85.5495C190.339 85.5495 190.48 85.6246 190.563 85.7486L198.322 97.2138L201.756 83.8674C201.794 83.7207 201.902 83.603 202.045 83.5532C207.923 81.5081 213.201 77.9311 217.309 73.208C223.607 65.9698 226.709 56.7101 226.043 47.1371C225.379 37.5623 221.025 28.8222 213.787 22.5247C207.193 16.7876 198.924 13.7031 190.268 13.7031ZM198.51 98.752C198.362 98.752 198.22 98.6786 198.135 98.5528L189.947 86.4548C181.158 86.3914 172.675 83.1838 166.037 77.4087C150.718 64.0813 149.098 40.7762 162.425 25.458C168.882 18.037 177.842 13.5728 187.655 12.8892C197.475 12.2102 206.96 15.3861 214.381 21.8412C221.802 28.298 226.265 37.2581 226.947 47.0737C227.629 56.8884 224.449 66.3818 217.993 73.8028C213.834 78.583 208.507 82.2178 202.572 84.3273L198.948 98.4115C198.904 98.5845 198.763 98.7148 198.587 98.7456C198.561 98.7492 198.535 98.752 198.51 98.752Z" fill="#181D20"/>
<path d="M179.975 62.2598C179.655 62.2598 179.334 62.1547 179.065 61.9402L166.387 51.8131C166.04 51.5361 165.838 51.1169 165.838 50.6733C165.838 50.2297 166.04 49.8096 166.387 49.5326L178.902 39.5359C179.531 39.0325 180.45 39.1357 180.952 39.7649C181.456 40.395 181.353 41.3131 180.723 41.8164L169.636 50.6733L180.886 59.6596C181.516 60.163 181.619 61.081 181.116 61.7102C180.828 62.0714 180.403 62.2598 179.975 62.2598Z" fill="#181D20"/>
<path d="M199.39 62.2598C198.962 62.2598 198.537 62.0714 198.249 61.7102C197.746 61.081 197.848 60.163 198.478 59.6596L209.729 50.6733L198.641 41.8164C198.011 41.314 197.909 40.395 198.411 39.7649C198.916 39.1357 199.834 39.0325 200.463 39.5359L212.978 49.5326C213.325 49.8096 213.527 50.2297 213.527 50.6733C213.527 51.1169 213.325 51.5361 212.978 51.8131L200.3 61.9402C200.031 62.1547 199.71 62.2598 199.39 62.2598Z" fill="#181D20"/>
<path d="M186.835 64.9382C186.632 64.9653 186.419 64.9508 186.21 64.8866C185.439 64.6494 185.006 63.8328 185.244 63.0623L193.089 37.5573C193.326 36.7859 194.142 36.3532 194.913 36.5913C195.683 36.8285 196.116 37.6451 195.879 38.4155L188.033 63.9206C187.861 64.4819 187.38 64.863 186.835 64.9382Z" fill="#181D20"/>
<path d="M328.609 71.4101L335.018 82.5032L341.439 71.4101L335.018 60.3171L328.609 71.4101ZM335.017 83.8594C334.855 83.8594 334.705 83.7734 334.625 83.633L327.694 71.6364C327.613 71.4961 327.613 71.3232 327.694 71.1838L334.625 59.1863C334.705 59.046 334.855 58.96 335.017 58.96C335.178 58.96 335.327 59.046 335.408 59.1863L342.354 71.1829C342.436 71.3232 342.436 71.4961 342.354 71.6364L335.408 83.6339C335.327 83.7734 335.178 83.8594 335.017 83.8594Z" fill="#181D20"/>
<path d="M315.744 62.585C314.09 62.585 312.745 63.9294 312.745 65.5826C312.745 67.2357 314.09 68.581 315.744 68.581C317.397 68.581 318.741 67.2357 318.741 65.5826C318.741 63.9294 317.397 62.585 315.744 62.585ZM315.744 69.4863C313.592 69.4863 311.84 67.7354 311.84 65.5826C311.84 63.4306 313.592 61.6796 315.744 61.6796C317.896 61.6796 319.647 63.4306 319.647 65.5826C319.647 67.7354 317.896 69.4863 315.744 69.4863Z" fill="#181D20"/>
<path d="M328.085 48.2497C326.724 48.2497 325.617 49.3569 325.617 50.7176C325.617 52.0792 326.724 53.1865 328.085 53.1865C329.447 53.1865 330.554 52.0792 330.554 50.7176C330.554 49.3569 329.447 48.2497 328.085 48.2497ZM328.085 54.0918C326.226 54.0918 324.712 52.5781 324.712 50.7176C324.712 48.8581 326.226 47.3443 328.085 47.3443C329.946 47.3443 331.459 48.8581 331.459 50.7176C331.459 52.5781 329.946 54.0918 328.085 54.0918Z" fill="#181D20"/>
<path d="M312.293 51.8308C311.455 51.8308 310.773 52.5126 310.773 53.35C310.773 54.1883 311.455 54.8701 312.293 54.8701C313.13 54.8701 313.812 54.1883 313.812 53.35C313.812 52.5126 313.13 51.8308 312.293 51.8308ZM312.293 55.7754C310.956 55.7754 309.868 54.6872 309.868 53.35C309.868 52.0137 310.956 50.9255 312.293 50.9255C313.63 50.9255 314.717 52.0137 314.717 53.35C314.717 54.6872 313.63 55.7754 312.293 55.7754Z" fill="#181D20"/>
<path d="M195.769 381.762L200.549 390.038L205.34 381.762L200.549 373.486L195.769 381.762ZM200.548 391.395C200.387 391.395 200.238 391.308 200.156 391.168L194.854 381.988C194.773 381.849 194.773 381.675 194.854 381.536L200.156 372.355C200.238 372.216 200.387 372.129 200.548 372.129C200.71 372.129 200.86 372.215 200.94 372.355L206.256 381.535C206.336 381.675 206.336 381.849 206.256 381.989L200.94 391.169C200.86 391.309 200.71 391.395 200.548 391.395Z" fill="#181D20"/>
<path d="M188.003 370.712C186.35 370.712 185.004 372.056 185.004 373.709C185.004 375.363 186.35 376.708 188.003 376.708C189.656 376.708 191.001 375.363 191.001 373.709C191.001 372.056 189.656 370.712 188.003 370.712ZM188.003 377.613C185.851 377.613 184.099 375.861 184.099 373.709C184.099 371.557 185.851 369.807 188.003 369.807C190.155 369.807 191.907 371.557 191.907 373.709C191.907 375.861 190.155 377.613 188.003 377.613Z" fill="#181D20"/>
<path d="M200.345 361.42C198.984 361.42 197.877 362.527 197.877 363.889C197.877 365.25 198.984 366.356 200.345 366.356C201.707 366.356 202.814 365.25 202.814 363.889C202.814 362.527 201.707 361.42 200.345 361.42ZM200.345 367.262C198.485 367.262 196.971 365.748 196.971 363.889C196.971 362.028 198.485 360.514 200.345 360.514C202.206 360.514 203.72 362.028 203.72 363.889C203.72 365.748 202.206 367.262 200.345 367.262Z" fill="#181D20"/>
<path d="M188.002 359.447C187.165 359.447 186.483 360.128 186.483 360.966C186.483 361.804 187.165 362.485 188.002 362.485C188.84 362.485 189.521 361.804 189.521 360.966C189.521 360.128 188.84 359.447 188.002 359.447ZM188.002 363.391C186.665 363.391 185.578 362.304 185.578 360.966C185.578 359.63 186.665 358.542 188.002 358.542C189.339 358.542 190.427 359.63 190.427 360.966C190.427 362.304 189.339 363.391 188.002 363.391Z" fill="#181D20"/>
<path d="M102.848 77.7402L109.256 88.8324L115.679 77.7402L109.256 66.6463L102.848 77.7402ZM109.256 90.1895C109.094 90.1895 108.945 90.1034 108.863 89.9631L101.933 77.9666C101.852 77.8262 101.852 77.6533 101.933 77.5139L108.863 65.5164C108.945 65.3761 109.094 65.2901 109.256 65.2901C109.417 65.2901 109.567 65.3761 109.647 65.5164L116.594 77.513C116.675 77.6533 116.675 77.8262 116.594 77.9666L109.647 89.9631C109.567 90.1034 109.417 90.1895 109.256 90.1895Z" fill="#181D20"/>
<path d="M138.044 75.6143C136.391 75.6143 135.046 76.9587 135.046 78.6118C135.046 80.265 136.391 81.6103 138.044 81.6103C139.698 81.6103 141.042 80.265 141.042 78.6118C141.042 76.9587 139.698 75.6143 138.044 75.6143ZM138.044 82.5156C135.892 82.5156 134.141 80.7647 134.141 78.6118C134.141 76.4599 135.892 74.709 138.044 74.709C140.197 74.709 141.948 76.4599 141.948 78.6118C141.948 80.7647 140.197 82.5156 138.044 82.5156Z" fill="#181D20"/>
<path d="M102.703 54.5789C101.342 54.5789 100.234 55.6861 100.234 57.0477C100.234 58.4084 101.342 59.5165 102.703 59.5165C104.064 59.5165 105.171 58.4084 105.171 57.0477C105.171 55.6861 104.064 54.5789 102.703 54.5789ZM102.703 60.4219C100.843 60.4219 99.3291 58.9082 99.3291 57.0477C99.3291 55.1872 100.843 53.6735 102.703 53.6735C104.563 53.6735 106.077 55.1872 106.077 57.0477C106.077 58.9082 104.563 60.4219 102.703 60.4219Z" fill="#181D20"/>
<path d="M123.548 70.2614C122.71 70.2614 122.028 70.9432 122.028 71.7806C122.028 72.618 122.71 73.2997 123.548 73.2997C124.386 73.2997 125.067 72.618 125.067 71.7806C125.067 70.9432 124.386 70.2614 123.548 70.2614ZM123.548 74.2051C122.211 74.2051 121.123 73.1178 121.123 71.7806C121.123 70.4443 122.211 69.3561 123.548 69.3561C124.885 69.3561 125.972 70.4443 125.972 71.7806C125.972 73.1178 124.885 74.2051 123.548 74.2051Z" fill="#181D20"/>
<path d="M120.55 52.4341L124.38 59.0648L128.219 52.4341L124.38 45.8034L120.55 52.4341ZM124.38 60.4219C124.218 60.4219 124.069 60.335 123.987 60.1955L119.635 52.6605C119.554 52.5201 119.554 52.3481 119.635 52.2078L123.987 44.6727C124.069 44.5333 124.218 44.4464 124.38 44.4464C124.542 44.4464 124.691 44.5333 124.772 44.6727L129.134 52.2069C129.215 52.3472 129.215 52.5201 129.134 52.6605L124.772 60.1955C124.691 60.335 124.542 60.4219 124.38 60.4219Z" fill="#181D20"/>
<path d="M86.7015 84.6872C85.8637 84.6872 85.1822 85.3689 85.1822 86.2064C85.1822 87.0438 85.8637 87.7255 86.7015 87.7255C87.5393 87.7255 88.2204 87.0438 88.2204 86.2064C88.2204 85.3689 87.5393 84.6872 86.7015 84.6872ZM86.7015 88.6309C85.3647 88.6309 84.2769 87.5426 84.2769 86.2064C84.2769 84.8692 85.3647 83.7819 86.7015 83.7819C88.0382 83.7819 89.1257 84.8692 89.1257 86.2064C89.1257 87.5426 88.0382 88.6309 86.7015 88.6309Z" fill="#181D20"/>
<path d="M245.022 72.1575C245.022 75.4764 242.33 78.168 239.01 78.168C235.691 78.168 233 75.4764 233 72.1575C233 68.8376 235.691 66.1461 239.01 66.1461C242.33 66.1461 245.022 68.8376 245.022 72.1575Z" fill="white"/>
<path d="M264.655 72.2308C264.655 75.5506 261.963 78.2422 258.643 78.2422C255.323 78.2422 252.633 75.5506 252.633 72.2308C252.633 68.9109 255.323 66.2203 258.643 66.2203C261.963 66.2203 264.655 68.9109 264.655 72.2308Z" fill="white"/>
<path d="M284.286 72.0081C284.286 75.328 281.594 78.0195 278.274 78.0195C274.954 78.0195 272.264 75.328 272.264 72.0081C272.264 68.6883 274.954 65.9976 278.274 65.9976C281.594 65.9976 284.286 68.6883 284.286 72.0081Z" fill="white"/>
<path d="M318.592 144.072C318.592 142.323 319.125 140.893 320.192 139.784C321.301 138.632 322.816 138.056 324.736 138.056C326.656 138.056 328.149 138.632 329.216 139.784C330.325 140.893 330.88 142.323 330.88 144.072C330.88 145.821 330.325 147.272 329.216 148.424C328.149 149.533 326.656 150.088 324.736 150.088C322.816 150.088 321.301 149.533 320.192 148.424C319.125 147.272 318.592 145.821 318.592 144.072ZM320.704 135.688C319.979 135.304 319.296 134.621 318.656 133.64C318.016 132.616 317.696 131.421 317.696 130.056C317.696 128.733 318.037 127.752 318.72 127.112C319.445 126.429 320.491 125.917 321.856 125.576L326.848 124.36C328.981 123.805 330.048 122.781 330.048 121.288C330.048 120.477 329.643 119.773 328.832 119.176C328.064 118.579 326.72 118.28 324.8 118.28C323.051 118.28 321.408 118.515 319.872 118.984C318.336 119.411 317.099 119.923 316.16 120.52C315.435 119.965 314.816 119.304 314.304 118.536C313.792 117.725 313.536 116.765 313.536 115.656C313.536 114.547 313.856 113.587 314.496 112.776C315.136 111.923 316.011 111.24 317.12 110.728C318.272 110.173 319.616 109.768 321.152 109.512C322.731 109.256 324.459 109.128 326.336 109.128C331.371 109.128 335.168 110.259 337.728 112.52C340.331 114.739 341.632 117.661 341.632 121.288C341.632 128.115 336.811 132.488 327.168 134.408L320.704 135.688Z" fill="#D2AEF7"/>
</g>
<path d="M318.592 144.072C318.592 142.323 319.125 140.893 320.192 139.784C321.301 138.632 322.816 138.056 324.736 138.056C326.656 138.056 328.149 138.632 329.216 139.784C330.325 140.893 330.88 142.323 330.88 144.072C330.88 145.821 330.325 147.272 329.216 148.424C328.149 149.533 326.656 150.088 324.736 150.088C322.816 150.088 321.301 149.533 320.192 148.424C319.125 147.272 318.592 145.821 318.592 144.072ZM320.704 135.688C319.979 135.304 319.296 134.621 318.656 133.64C318.016 132.616 317.696 131.421 317.696 130.056C317.696 128.733 318.037 127.752 318.72 127.112C319.445 126.429 320.491 125.917 321.856 125.576L326.848 124.36C328.981 123.805 330.048 122.781 330.048 121.288C330.048 120.477 329.643 119.773 328.832 119.176C328.064 118.579 326.72 118.28 324.8 118.28C323.051 118.28 321.408 118.515 319.872 118.984C318.336 119.411 317.099 119.923 316.16 120.52C315.435 119.965 314.816 119.304 314.304 118.536C313.792 117.725 313.536 116.765 313.536 115.656C313.536 114.547 313.856 113.587 314.496 112.776C315.136 111.923 316.011 111.24 317.12 110.728C318.272 110.173 319.616 109.768 321.152 109.512C322.731 109.256 324.459 109.128 326.336 109.128C331.371 109.128 335.168 110.259 337.728 112.52C340.331 114.739 341.632 117.661 341.632 121.288C341.632 128.115 336.811 132.488 327.168 134.408L320.704 135.688Z" fill="#D2AEF7"/>
</g>
<defs>
<clipPath id="clip0_632_2674">
<rect width="588.467" height="452.667" fill="white"/>
</clipPath>
<clipPath id="clip1_632_2674">
<rect width="588.467" height="452.667" fill="white"/>
</clipPath>
</defs>
</svg>
