<svg width="48" height="48" viewBox="0 0 48 48" fill="none" xmlns="http://www.w3.org/2000/svg">
<path d="M4.47669 40.0594L3.06239 39.5597H3.06239L4.47669 40.0594ZM7.53918 43.1219L8.03893 44.5362H8.03893L7.53918 43.1219ZM12.5863 41.3385L12.0865 39.9242L12.5863 41.3385ZM14.3168 41.5038L15.0441 40.1919L14.3168 41.5038ZM6.20154 33.1314L4.86749 33.8172L6.20154 33.1314ZM5.5 24C5.5 13.7827 13.7827 5.5 24 5.5V2.5C12.1259 2.5 2.5 12.1259 2.5 24H5.5ZM7.53558 32.4456C6.23484 29.9154 5.5 27.0457 5.5 24H2.5C2.5 27.5338 3.35373 30.8726 4.86749 33.8172L7.53558 32.4456ZM5.89099 40.5592L7.74831 35.303L4.91971 34.3035L3.06239 39.5597L5.89099 40.5592ZM7.03942 41.7076C6.32607 41.9597 5.63892 41.2725 5.89099 40.5592L3.06239 39.5597C1.97009 42.6509 4.94775 45.6285 8.03893 44.5362L7.03942 41.7076ZM12.0865 39.9242L7.03942 41.7076L8.03893 44.5362L13.086 42.7528L12.0865 39.9242ZM24 42.5C20.7481 42.5 17.6963 41.6622 15.0441 40.1919L13.5895 42.8157C16.6754 44.5265 20.2263 45.5 24 45.5V42.5ZM42.5 24C42.5 34.2173 34.2173 42.5 24 42.5V45.5C35.8741 45.5 45.5 35.8741 45.5 24H42.5ZM24 5.5C34.2173 5.5 42.5 13.7827 42.5 24H45.5C45.5 12.1259 35.8741 2.5 24 2.5V5.5ZM13.086 42.7528C13.217 42.7065 13.4007 42.711 13.5895 42.8157L15.0441 40.1919C14.1729 39.7089 13.0983 39.5667 12.0865 39.9242L13.086 42.7528ZM4.86749 33.8172C4.9622 34.0015 4.96425 34.1774 4.91971 34.3035L7.74831 35.303C8.09203 34.3302 7.97368 33.2978 7.53558 32.4456L4.86749 33.8172Z" fill="#323843"/>
<circle cx="14.1016" cy="24.1016" r="2.5" fill="#323843"/>
<circle cx="24.1016" cy="24.1016" r="2.5" fill="#323843"/>
<circle cx="34.1016" cy="24.1016" r="2.5" fill="#323843"/>
</svg>
