<svg width="40" height="40" viewBox="0 0 40 40" fill="none" xmlns="http://www.w3.org/2000/svg">
<g clip-path="url(#clip0_157_2466)">
<circle cx="20" cy="20" r="19" fill="#CBE857" stroke="#323843" stroke-width="2"/>
<path d="M15.7 27V25.26L21.26 19.98C21.7267 19.54 22.0733 19.1533 22.3 18.82C22.5267 18.4867 22.6733 18.18 22.74 17.9C22.82 17.6067 22.86 17.3333 22.86 17.08C22.86 16.44 22.64 15.9467 22.2 15.6C21.76 15.24 21.1133 15.06 20.26 15.06C19.58 15.06 18.96 15.18 18.4 15.42C17.8533 15.66 17.38 16.0267 16.98 16.52L15.16 15.12C15.7067 14.3867 16.44 13.82 17.36 13.42C18.2933 13.0067 19.3333 12.8 20.48 12.8C21.4933 12.8 22.3733 12.9667 23.12 13.3C23.88 13.62 24.46 14.08 24.86 14.68C25.2733 15.28 25.48 15.9933 25.48 16.82C25.48 17.2733 25.42 17.7267 25.3 18.18C25.18 18.62 24.9533 19.0867 24.62 19.58C24.2867 20.0733 23.8 20.6267 23.16 21.24L18.38 25.78L17.84 24.8H26.02V27H15.7Z" fill="#323843"/>
</g>
<defs>
<clipPath id="clip0_157_2466">
<rect width="40" height="40" fill="white"/>
</clipPath>
</defs>
</svg>
