<svg width="40" height="40" viewBox="0 0 40 40" fill="none" xmlns="http://www.w3.org/2000/svg">
<g clip-path="url(#clip0_157_2469)">
<circle cx="20" cy="20" r="19" fill="#CBE857" stroke="#323843" stroke-width="2"/>
<path d="M20.28 27.2C19.2933 27.2 18.3267 27.06 17.38 26.78C16.4467 26.4867 15.66 26.0867 15.02 25.58L16.14 23.56C16.6467 23.9733 17.26 24.3067 17.98 24.56C18.7 24.8133 19.4533 24.94 20.24 24.94C21.1733 24.94 21.9 24.7533 22.42 24.38C22.94 23.9933 23.2 23.4733 23.2 22.82C23.2 22.18 22.96 21.6733 22.48 21.3C22 20.9267 21.2267 20.74 20.16 20.74H18.88V18.96L22.88 14.2L23.22 15.18H15.7V13H25.24V14.74L21.24 19.5L19.88 18.7H20.66C22.38 18.7 23.6667 19.0867 24.52 19.86C25.3867 20.62 25.82 21.6 25.82 22.8C25.82 23.5867 25.62 24.3133 25.22 24.98C24.82 25.6467 24.2067 26.1867 23.38 26.6C22.5667 27 21.5333 27.2 20.28 27.2Z" fill="#323843"/>
</g>
<defs>
<clipPath id="clip0_157_2469">
<rect width="40" height="40" fill="white"/>
</clipPath>
</defs>
</svg>
