<svg width="40" height="40" viewBox="0 0 40 40" fill="none" xmlns="http://www.w3.org/2000/svg">
<g clip-path="url(#clip0_408_1292)">
<path d="M0 20C0 8.95431 8.95431 0 20 0C31.0457 0 40 8.95431 40 20C40 31.0457 31.0457 40 20 40C8.95431 40 0 31.0457 0 20Z" fill="white"/>
<path d="M21.9286 21.9286C20.3571 23.55 20.2429 25.5714 20.1071 30C24.2357 30 27.0857 29.9857 28.5571 28.5571C29.9857 27.0857 30 24.1 30 20.1071C25.5714 20.25 23.55 20.3571 21.9286 21.9286ZM10 20.1071C10 24.1 10.0143 27.0857 11.4429 28.5571C12.9143 29.9857 15.7643 30 19.8929 30C19.75 25.5714 19.6429 23.55 18.0714 21.9286C16.45 20.3571 14.4286 20.2429 10 20.1071ZM19.8929 10C15.7714 10 12.9143 10.0143 11.4429 11.4429C10.0143 12.9143 10 15.9 10 19.8929C14.4286 19.75 16.45 19.6429 18.0714 18.0714C19.6429 16.45 19.7571 14.4286 19.8929 10ZM21.9286 18.0714C20.3571 16.45 20.2429 14.4286 20.1071 10C24.2357 10 27.0857 10.0143 28.5571 11.4429C29.9857 12.9143 30 15.9 30 19.8929C25.5714 19.75 23.55 19.6429 21.9286 18.0714Z" fill="#323843"/>
<path d="M30 20.1071V19.8929C25.5714 19.75 23.55 19.6429 21.9286 18.0714C20.3571 16.45 20.2429 14.4286 20.1071 10H19.8929C19.75 14.4286 19.6429 16.45 18.0714 18.0714C16.45 19.6429 14.4286 19.7571 10 19.8929V20.1071C14.4286 20.25 16.45 20.3571 18.0714 21.9286C19.6429 23.55 19.7571 25.5714 19.8929 30H20.1071C20.25 25.5714 20.3571 23.55 21.9286 21.9286C23.55 20.3571 25.5714 20.2429 30 20.1071Z" fill="white"/>
</g>
<defs>
<clipPath id="clip0_408_1292">
<rect width="40" height="40" fill="white"/>
</clipPath>
</defs>
</svg>
